<svg width="1022" height="451" viewBox="0 0 1022 451" fill="none" xmlns="http://www.w3.org/2000/svg">
<path d="M90.4488 289.356H68.9531C68.5605 286.581 67.7589 284.117 66.5483 281.962C65.3378 279.775 63.7837 277.914 61.886 276.38C59.9884 274.846 57.7963 273.671 55.3097 272.854C52.8559 272.038 50.1894 271.63 47.3102 271.63C42.108 271.63 37.5766 272.92 33.7159 275.499C29.8551 278.045 26.8615 281.766 24.7348 286.663C22.6081 291.527 21.5448 297.436 21.5448 304.389C21.5448 311.538 22.6081 317.545 24.7348 322.409C26.8942 327.273 29.9042 330.945 33.7649 333.426C37.6257 335.907 42.0917 337.148 47.1629 337.148C50.0094 337.148 52.6432 336.772 55.0643 336.021C57.5182 335.27 59.6939 334.177 61.5916 332.741C63.4892 331.272 65.0597 329.492 66.303 327.403C67.579 325.314 68.4623 322.931 68.9531 320.254L90.4488 320.352C89.8926 324.955 88.5021 329.394 86.2773 333.671C84.0852 337.915 81.1242 341.718 77.3944 345.08C73.6972 348.41 69.2803 351.054 64.1436 353.013C59.0396 354.939 53.2648 355.902 46.8194 355.902C37.8547 355.902 29.8388 353.878 22.7717 349.83C15.7373 345.782 10.1753 339.922 6.08554 332.251C2.02851 324.579 0 315.292 0 304.389C0 293.453 2.06123 284.149 6.1837 276.478C10.3062 268.807 15.9009 262.963 22.968 258.948C30.0351 254.9 37.9856 252.876 46.8194 252.876C52.6432 252.876 58.0417 253.692 63.0148 255.324C68.0207 256.957 72.4539 259.34 76.3147 262.474C80.1754 265.575 83.3163 269.378 85.7374 273.883C88.1913 278.388 89.7617 283.545 90.4488 289.356Z" fill="#E40001"/>
<path d="M198.05 304.389C198.05 315.325 195.972 324.628 191.817 332.3C187.695 339.971 182.067 345.831 174.935 349.879C167.835 353.894 159.852 355.902 150.985 355.902C142.053 355.902 134.037 353.878 126.938 349.83C119.838 345.782 114.227 339.922 110.104 332.251C105.982 324.579 103.92 315.292 103.92 304.389C103.92 293.453 105.982 284.149 110.104 276.478C114.227 268.807 119.838 262.963 126.938 258.948C134.037 254.9 142.053 252.876 150.985 252.876C159.852 252.876 167.835 254.9 174.935 258.948C182.067 262.963 187.695 268.807 191.817 276.478C195.972 284.149 198.05 293.453 198.05 304.389ZM176.505 304.389C176.505 297.305 175.442 291.331 173.315 286.467C171.221 281.603 168.26 277.914 164.432 275.401C160.604 272.887 156.122 271.63 150.985 271.63C145.849 271.63 141.366 272.887 137.538 275.401C133.71 277.914 130.733 281.603 128.606 286.467C126.512 291.331 125.465 297.305 125.465 304.389C125.465 311.473 126.512 317.447 128.606 322.311C130.733 327.175 133.71 330.863 137.538 333.377C141.366 335.891 145.849 337.148 150.985 337.148C156.122 337.148 160.604 335.891 164.432 333.377C168.26 330.863 171.221 327.175 173.315 322.311C175.442 317.447 176.505 311.473 176.505 304.389Z" fill="#E40001"/>
<path d="M297.86 254.247V354.531H279.505L235.778 291.413H235.042V354.531H213.791V254.247H232.441L275.825 317.316H276.708V254.247H297.86Z" fill="#E40001"/>
<path d="M369.942 283.088C369.549 279.139 367.864 276.07 364.887 273.883C361.91 271.696 357.869 270.602 352.765 270.602C349.297 270.602 346.369 271.092 343.98 272.071C341.592 273.018 339.76 274.34 338.484 276.037C337.24 277.735 336.619 279.661 336.619 281.815C336.553 283.611 336.93 285.178 337.748 286.516C338.598 287.855 339.76 289.013 341.232 289.993C342.704 290.939 344.406 291.772 346.336 292.49C348.266 293.176 350.328 293.763 352.52 294.253L361.55 296.407C365.934 297.387 369.958 298.692 373.623 300.325C377.287 301.957 380.461 303.965 383.144 306.348C385.827 308.731 387.904 311.538 389.376 314.77C390.882 318.002 391.65 321.707 391.683 325.885C391.65 332.022 390.08 337.343 386.972 341.848C383.896 346.321 379.447 349.797 373.623 352.278C367.832 354.726 360.846 355.951 352.667 355.951C344.553 355.951 337.486 354.71 331.466 352.229C325.478 349.748 320.8 346.076 317.43 341.212C314.092 336.315 312.342 330.26 312.178 323.045H332.742C332.971 326.408 333.936 329.215 335.637 331.467C337.371 333.687 339.678 335.368 342.557 336.511C345.469 337.621 348.757 338.176 352.422 338.176C356.021 338.176 359.145 337.653 361.795 336.609C364.478 335.564 366.556 334.112 368.028 332.251C369.5 330.39 370.236 328.252 370.236 325.836C370.236 323.584 369.566 321.69 368.224 320.156C366.916 318.622 364.985 317.316 362.433 316.239C359.914 315.162 356.822 314.182 353.158 313.301L342.214 310.559C333.74 308.502 327.049 305.287 322.141 300.912C317.233 296.538 314.796 290.646 314.829 283.235C314.796 277.164 316.415 271.859 319.687 267.321C322.992 262.784 327.523 259.242 333.282 256.696C339.04 254.149 345.584 252.876 352.912 252.876C360.372 252.876 366.883 254.149 372.445 256.696C378.04 259.242 382.391 262.784 385.499 267.321C388.608 271.859 390.211 277.115 390.309 283.088H369.942Z" fill="#E40001"/>
<path d="M401.303 264.98V254.243H474.207V264.98H443.641V354.194H431.87V264.98H401.303Z" fill="black"/>
<path d="M492.373 354.194V254.243H525.218C532.812 254.243 539.046 255.577 543.918 258.245C548.791 260.88 552.398 264.508 554.74 269.128C557.081 273.748 558.252 279.003 558.252 284.892C558.252 290.781 557.081 296.003 554.74 300.558C552.398 305.113 548.807 308.692 543.966 311.295C539.125 313.865 532.939 315.15 525.408 315.15H498.828V304.218H525.028C530.217 304.218 534.394 303.437 537.558 301.876C540.754 300.314 543.064 298.101 544.488 295.238C545.943 292.342 546.671 288.894 546.671 284.892C546.671 280.89 545.943 277.392 544.488 274.399C543.032 271.405 540.707 269.095 537.511 267.469C534.315 265.809 530.091 264.98 524.838 264.98H504.144V354.194H492.373ZM538.128 309.294L562.049 354.194H548.38L524.838 309.294H538.128Z" fill="black"/>
<path d="M641.657 254.243H653.428V320.421C653.428 327.254 651.861 333.354 648.729 338.723C645.628 344.059 641.246 348.272 635.582 351.363C629.918 354.421 623.273 355.951 615.647 355.951C608.021 355.951 601.376 354.421 595.713 351.363C590.049 348.272 585.65 344.059 582.518 338.723C579.417 333.354 577.866 327.254 577.866 320.421V254.243H589.637V319.445C589.637 324.326 590.681 328.669 592.77 332.476C594.858 336.25 597.833 339.227 601.693 341.407C605.585 343.554 610.236 344.628 615.647 344.628C621.058 344.628 625.709 343.554 629.601 341.407C633.493 339.227 636.468 336.25 638.524 332.476C640.613 328.669 641.657 324.326 641.657 319.445V254.243Z" fill="black"/>
<path d="M671.618 264.98V254.243H744.521V264.98H713.955V354.194H702.184V264.98H671.618Z" fill="black"/>
<path d="M840.658 304.218C840.658 314.76 838.807 323.87 835.105 331.549C831.403 339.227 826.324 345.149 819.869 349.313C813.414 353.478 806.042 355.56 797.751 355.56C789.461 355.56 782.089 353.478 775.634 349.313C769.179 345.149 764.1 339.227 760.398 331.549C756.696 323.87 754.845 314.76 754.845 304.218C754.845 293.676 756.696 284.566 760.398 276.888C764.1 269.209 769.179 263.288 775.634 259.123C782.089 254.958 789.461 252.876 797.751 252.876C806.042 252.876 813.414 254.958 819.869 259.123C826.324 263.288 831.403 269.209 835.105 276.888C838.807 284.566 840.658 293.676 840.658 304.218ZM829.267 304.218C829.267 295.564 827.859 288.259 825.043 282.305C822.258 276.351 818.477 271.845 813.699 268.786C808.953 265.728 803.637 264.199 797.751 264.199C791.866 264.199 786.534 265.728 781.756 268.786C777.01 271.845 773.229 276.351 770.413 282.305C767.628 288.259 766.236 295.564 766.236 304.218C766.236 312.873 767.628 320.177 770.413 326.131C773.229 332.085 777.01 336.592 781.756 339.65C786.534 342.708 791.866 344.238 797.751 344.238C803.637 344.238 808.953 342.708 813.699 339.65C818.477 336.592 822.258 332.085 825.043 326.131C827.859 320.177 829.267 312.873 829.267 304.218Z" fill="black"/>
<path d="M860.45 354.194V254.243H893.295C900.889 254.243 907.122 255.577 911.995 258.245C916.868 260.88 920.475 264.508 922.817 269.128C925.158 273.748 926.329 279.003 926.329 284.892C926.329 290.781 925.158 296.003 922.817 300.558C920.475 305.113 916.884 308.692 912.043 311.295C907.201 313.865 901.015 315.15 893.485 315.15H866.905V304.218H893.105C898.294 304.218 902.471 303.437 905.635 301.876C908.831 300.314 911.141 298.101 912.565 295.238C914.02 292.342 914.748 288.894 914.748 284.892C914.748 280.89 914.02 277.392 912.565 274.399C911.109 271.405 908.783 269.095 905.588 267.469C902.392 265.809 898.168 264.98 892.915 264.98H872.221V354.194H860.45ZM906.205 309.294L930.126 354.194H916.457L892.915 309.294H906.205Z" fill="black"/>
<path d="M949.93 354.194H937.59L973.282 254.243H985.433L1021.12 354.194H1008.78L979.737 270.055H978.978L949.93 354.194ZM954.487 315.15H1004.23V325.887H954.487V315.15Z" fill="black"/>
<path d="M341.176 425.52C341.043 424.151 340.472 423.087 339.462 422.329C338.453 421.571 337.083 421.192 335.353 421.192C334.177 421.192 333.184 421.361 332.374 421.701C331.565 422.029 330.943 422.487 330.511 423.076C330.089 423.664 329.878 424.332 329.878 425.079C329.856 425.701 329.984 426.245 330.261 426.709C330.55 427.173 330.943 427.574 331.443 427.914C331.942 428.242 332.518 428.531 333.173 428.78C333.827 429.017 334.526 429.221 335.269 429.391L338.331 430.138C339.817 430.477 341.182 430.93 342.424 431.496C343.666 432.061 344.742 432.757 345.652 433.583C346.561 434.41 347.266 435.383 347.765 436.503C348.275 437.624 348.536 438.908 348.547 440.357C348.536 442.484 348.003 444.329 346.95 445.89C345.907 447.441 344.398 448.646 342.424 449.506C340.461 450.355 338.092 450.779 335.319 450.779C332.568 450.779 330.172 450.349 328.131 449.489C326.102 448.629 324.515 447.356 323.373 445.67C322.241 443.972 321.648 441.873 321.593 439.372H328.564C328.642 440.538 328.969 441.511 329.546 442.292C330.134 443.061 330.916 443.644 331.892 444.04C332.879 444.425 333.994 444.617 335.236 444.617C336.456 444.617 337.516 444.436 338.414 444.074C339.324 443.712 340.028 443.208 340.527 442.563C341.026 441.918 341.276 441.177 341.276 440.34C341.276 439.559 341.048 438.902 340.594 438.37C340.15 437.839 339.496 437.386 338.63 437.012C337.776 436.639 336.728 436.299 335.486 435.994L331.775 435.043C328.902 434.33 326.634 433.216 324.97 431.699C323.306 430.183 322.48 428.14 322.491 425.571C322.48 423.466 323.029 421.627 324.138 420.054C325.259 418.481 326.795 417.253 328.747 416.371C330.699 415.488 332.918 415.047 335.402 415.047C337.932 415.047 340.139 415.488 342.025 416.371C343.921 417.253 345.397 418.481 346.45 420.054C347.504 421.627 348.048 423.449 348.081 425.52H341.176Z" fill="black"/>
<path d="M392.223 450.287H384.503L396.266 415.522H405.551L417.297 450.287H409.577L401.042 423.466H400.775L392.223 450.287ZM391.741 436.622H409.977V442.36H391.741V436.622Z" fill="black"/>
<path d="M483.635 415.522V450.287H477.413L462.588 428.406H462.338V450.287H455.134V415.522H461.456L476.165 437.386H476.464V415.522H483.635Z" fill="black"/>
<path d="M522.025 421.582V415.522H550.011V421.582H539.579V450.287H532.457V421.582H522.025Z" fill="black"/>
<path d="M618.113 432.904C618.113 436.696 617.408 439.921 615.999 442.58C614.602 445.24 612.694 447.271 610.276 448.674C607.869 450.066 605.162 450.762 602.156 450.762C599.128 450.762 596.41 450.061 594.003 448.657C591.596 447.254 589.694 445.223 588.296 442.563C586.899 439.904 586.2 436.684 586.2 432.904C586.2 429.113 586.899 425.888 588.296 423.229C589.694 420.569 591.596 418.544 594.003 417.152C596.41 415.748 599.128 415.047 602.156 415.047C605.162 415.047 607.869 415.748 610.276 417.152C612.694 418.544 614.602 420.569 615.999 423.229C617.408 425.888 618.113 429.113 618.113 432.904ZM610.808 432.904C610.808 430.449 610.448 428.378 609.727 426.692C609.017 425.005 608.013 423.727 606.715 422.855C605.417 421.984 603.898 421.548 602.156 421.548C600.415 421.548 598.895 421.984 597.597 422.855C596.3 423.727 595.29 425.005 594.569 426.692C593.859 428.378 593.504 430.449 593.504 432.904C593.504 435.36 593.859 437.431 594.569 439.117C595.29 440.804 596.3 442.082 597.597 442.954C598.895 443.825 600.415 444.261 602.156 444.261C603.898 444.261 605.417 443.825 606.715 442.954C608.013 442.082 609.017 440.804 609.727 439.117C610.448 437.431 610.808 435.36 610.808 432.904Z" fill="black"/>
<path d="M675.67 425.52C675.537 424.151 674.965 423.087 673.956 422.329C672.946 421.571 671.577 421.192 669.846 421.192C668.67 421.192 667.678 421.361 666.868 421.701C666.058 422.029 665.437 422.487 665.004 423.076C664.583 423.664 664.372 424.332 664.372 425.079C664.35 425.701 664.477 426.245 664.755 426.709C665.043 427.173 665.437 427.574 665.936 427.914C666.435 428.242 667.012 428.531 667.667 428.78C668.321 429.017 669.02 429.221 669.763 429.391L672.824 430.138C674.311 430.477 675.675 430.93 676.918 431.496C678.16 432.061 679.236 432.757 680.145 433.583C681.055 434.41 681.759 435.383 682.258 436.503C682.769 437.624 683.029 438.908 683.04 440.357C683.029 442.484 682.497 444.329 681.443 445.89C680.401 447.441 678.892 448.646 676.918 449.506C674.954 450.355 672.586 450.779 669.813 450.779C667.062 450.779 664.666 450.349 662.625 449.489C660.595 448.629 659.009 447.356 657.866 445.67C656.735 443.972 656.142 441.873 656.086 439.372H663.058C663.135 440.538 663.463 441.511 664.039 442.292C664.627 443.061 665.409 443.644 666.385 444.04C667.373 444.425 668.487 444.617 669.73 444.617C670.95 444.617 672.009 444.436 672.908 444.074C673.817 443.712 674.522 443.208 675.021 442.563C675.52 441.918 675.769 441.177 675.769 440.34C675.769 439.559 675.542 438.902 675.087 438.37C674.644 437.839 673.989 437.386 673.124 437.012C672.27 436.639 671.222 436.299 669.979 435.994L666.269 435.043C663.396 434.33 661.128 433.216 659.464 431.699C657.8 430.183 656.974 428.14 656.985 425.571C656.974 423.466 657.523 421.627 658.632 420.054C659.752 418.481 661.288 417.253 663.241 416.371C665.193 415.488 667.411 415.047 669.896 415.047C672.425 415.047 674.632 415.488 676.518 416.371C678.415 417.253 679.89 418.481 680.944 420.054C681.998 421.627 682.541 423.449 682.575 425.52H675.67Z" fill="black"/>
<path fill-rule="evenodd" clip-rule="evenodd" d="M327.994 93.7978L235.01 187.596L270.039 187.963L305.069 188.328L363.639 129.554L422.208 70.7778L480.335 129.554L538.461 188.329L573.68 187.963L608.898 187.596L516.065 93.7978C465.008 42.2083 422.725 0 422.105 0C421.485 0 379.136 42.2083 327.994 93.7978ZM303.913 61.387C303.913 77.7635 304.376 90.6836 304.944 90.0981C305.511 89.5113 316.642 78.8025 329.682 66.3017C353.261 43.694 353.389 43.54 353.389 37.5906V31.6095H328.651H303.913V61.387Z" fill="#E40001"/>
<path fill-rule="evenodd" clip-rule="evenodd" d="M553.167 36.6204C533.514 56.724 517.434 73.6681 517.434 74.2742C517.434 74.8802 525.158 83.1894 534.598 92.7382L551.763 110.1L570.818 90.6905L589.875 71.2795L647.796 129.83L705.717 188.38L740.92 187.954L776.122 187.527L682.972 93.7291C631.738 42.1397 589.614 -0.0384548 589.359 2.63103e-05C589.107 0.0371331 572.819 16.5167 553.167 36.6204ZM393.057 134.615V142.861H401.303H409.549V134.615V126.369H401.303H393.057V134.615ZM419.17 134.615V142.861H427.416H435.662V134.615V126.369H427.416H419.17V134.615ZM393.057 160.728V168.974H401.303H409.549V160.728V152.482H401.303H393.057V160.728ZM419.17 160.728V168.974H427.416H435.662V160.728V152.482H427.416H419.17V160.728Z" fill="black"/>
</svg>
