<svg width="1239" height="980" viewBox="0 0 1239 980" fill="none" xmlns="http://www.w3.org/2000/svg">
<path d="M100.176 937.849C90.7681 937.849 85 946.866 85 955.434C85 963.946 90.7681 972.962 100.176 972.962C103.928 972.962 107.12 971.562 109.585 969.266L106.112 965.234C104.488 966.858 102.416 967.81 100.176 967.81C94.8002 967.81 90.4881 962.266 90.4881 955.434C90.4881 948.546 94.8002 943.001 100.176 943.001C102.416 943.001 104.488 944.009 106.112 945.633L109.585 941.601C107.12 939.305 103.928 937.849 100.176 937.849Z" fill="white"/>
<path d="M145.96 937.849C136.552 937.849 130.784 946.866 130.784 955.434C130.784 963.946 136.552 972.962 145.96 972.962C155.368 972.962 161.136 963.946 161.136 955.434C161.136 946.866 155.368 937.849 145.96 937.849ZM145.96 943.001C151.336 943.001 155.648 948.546 155.648 955.434C155.648 962.266 151.336 967.81 145.96 967.81C140.584 967.81 136.272 962.266 136.272 955.434C136.272 948.546 140.584 943.001 145.96 943.001Z" fill="white"/>
<path d="M199.319 937.961V955.21C196.574 949.106 192.99 943.394 188.846 937.961H183.358V972.85H188.846V947.37C193.886 955.098 197.526 963.498 199.319 972.85H204.807V937.961H199.319Z" fill="white"/>
<path d="M243.814 963.274C243.814 951.626 231.438 952.354 231.438 946.026C231.438 944.345 233.006 943.001 234.574 943.001C235.918 943.001 237.038 943.842 237.486 945.018L241.462 941.041C239.894 939.081 237.374 937.849 234.574 937.849C229.869 937.849 226.005 941.377 226.005 946.138C226.005 956.946 238.326 954.482 238.326 963.274C238.326 965.794 236.03 967.81 233.566 967.81C231.998 967.81 230.653 967.082 229.869 965.906L226.005 969.714C227.853 971.73 230.541 972.962 233.566 972.962C239.054 972.962 243.814 968.818 243.814 963.274Z" fill="white"/>
<path d="M270.641 972.85H276.129V943.17H283.297V937.961H263.472V943.17H270.641V972.85Z" fill="white"/>
<path d="M310.998 937.961H304.222V972.85H309.71V963.778C310.046 963.778 310.438 963.778 310.774 963.834C312.678 969.042 318.334 972.85 324.27 972.85V967.698C320.91 967.698 317.55 965.626 316.206 962.77C320.91 960.754 324.27 956.106 324.27 950.842C324.27 943.674 318.278 937.961 310.998 937.961ZM309.71 958.514V943.17H310.998C315.254 943.17 318.726 946.586 318.726 950.842C318.726 955.042 315.254 958.626 310.998 958.626C310.55 958.626 310.102 958.626 309.71 958.514Z" fill="white"/>
<path d="M366.684 962.602V937.961H361.196V962.602C361.196 965.458 358.844 967.81 355.932 967.81C353.076 967.81 350.723 965.458 350.723 962.602V937.961H345.235V962.602C345.235 968.314 350.051 972.962 355.932 972.962C361.868 972.962 366.684 968.314 366.684 962.602Z" fill="white"/>
<path d="M403.319 937.849C393.91 937.849 388.142 946.866 388.142 955.434C388.142 963.442 393.238 971.898 401.695 972.906L401.023 975.37C402.087 975.146 404.383 974.922 404.383 976.77C404.383 978.226 402.591 978.562 400.967 978.058L401.359 979.57C403.879 980.41 406.959 979.682 406.959 976.714C406.959 975.034 405.559 974.138 403.991 973.97L404.271 972.962C407.631 972.738 410.487 971.338 412.727 969.266L409.255 965.234C407.631 966.858 405.559 967.81 403.319 967.81C397.942 967.81 393.63 962.266 393.63 955.434C393.63 948.546 397.943 943.001 403.319 943.001C405.559 943.001 407.631 944.01 409.255 945.634L412.727 941.601C410.263 939.305 407.071 937.849 403.319 937.849Z" fill="white"/>
<path d="M455.293 972.85V948.266C455.293 942.497 450.477 937.849 444.54 937.849C438.66 937.849 433.844 942.497 433.844 948.266V972.85H439.332V965.794H449.805V972.85H455.293ZM449.805 960.642H439.332V948.266C439.332 945.354 441.684 943.057 444.54 943.057C447.453 943.057 449.805 945.354 449.805 948.266V960.642ZM441.74 929.617C438.716 929.617 437.596 931.857 437.596 934.601H440.452C440.452 933.593 441.124 932.809 442.244 932.809C444.148 932.809 444.932 934.489 447.397 934.489C450.421 934.489 451.541 932.249 451.541 929.449H448.685C448.685 930.457 448.013 931.297 446.893 931.297C444.988 931.297 444.204 929.617 441.74 929.617Z" fill="white"/>
<path d="M492.555 937.849C483.146 937.849 477.378 946.866 477.378 955.434C477.378 963.946 483.146 972.962 492.555 972.962C501.963 972.962 507.731 963.946 507.731 955.434C507.731 946.866 501.963 937.849 492.555 937.849ZM492.555 943.001C497.931 943.001 502.243 948.546 502.243 955.434C502.243 962.266 497.931 967.81 492.555 967.81C487.178 967.81 482.866 962.266 482.866 955.434C482.866 948.546 487.178 943.001 492.555 943.001Z" fill="white"/>
<path d="M555.278 972.85H572.414V967.698H560.766V958.626H571.126V953.474H560.766V943.17H572.414V937.961H555.278V972.85Z" fill="white"/>
<path d="M625.166 972.85H630.655V943.17H637.823V937.961H617.998V943.17H625.166V972.85Z" fill="white"/>
<path d="M658.431 972.85H675.568V967.698H663.919V958.626H674.28V953.474H663.919V943.17H675.568V937.961H658.431V972.85Z" fill="white"/>
<path d="M703.181 937.961H696.405V972.85H701.893V963.778C702.229 963.778 702.621 963.778 702.957 963.834C704.861 969.042 710.517 972.85 716.453 972.85V967.698C713.093 967.698 709.733 965.626 708.389 962.77C713.093 960.754 716.453 956.106 716.453 950.842C716.453 943.674 710.461 937.961 703.181 937.961ZM701.893 958.514V943.17H703.181C707.437 943.17 710.909 946.586 710.909 950.842C710.909 955.042 707.437 958.626 703.181 958.626C702.733 958.626 702.285 958.626 701.893 958.514Z" fill="white"/>
<path d="M744.178 937.961H737.402V972.85H742.89V963.778C743.226 963.778 743.618 963.778 743.954 963.834C745.858 969.042 751.515 972.85 757.451 972.85V967.698C754.091 967.698 750.731 965.626 749.387 962.77C754.091 960.754 757.451 956.106 757.451 950.842C757.451 943.674 751.459 937.961 744.178 937.961ZM742.89 958.514V943.17H744.178C748.435 943.17 751.907 946.586 751.907 950.842C751.907 955.042 748.435 958.626 744.178 958.626C743.73 958.626 743.282 958.626 742.89 958.514Z" fill="white"/>
<path d="M799.865 948.266C799.865 942.497 795.048 937.849 789.112 937.849C783.232 937.849 778.416 942.497 778.416 948.266V972.85H783.904V965.794H794.376V972.85H799.865V948.266ZM783.904 960.642V948.266C783.904 945.354 786.256 943.057 789.112 943.057C792.024 943.057 794.376 945.354 794.376 948.266V960.642H783.904Z" fill="white"/>
<path d="M828.628 937.961H821.852V972.85H827.34V963.778C827.788 963.778 828.18 963.834 828.628 963.834C835.909 963.834 841.901 957.898 841.901 950.842C841.901 943.674 835.909 937.961 828.628 937.961ZM827.34 958.514V943.17H828.628C832.885 943.17 836.357 946.586 836.357 950.842C836.357 955.042 832.885 958.626 828.628 958.626C828.18 958.626 827.732 958.626 827.34 958.514Z" fill="white"/>
<path d="M862.119 937.961V972.85H878.584V967.698H867.608V937.961H862.119Z" fill="white"/>
<path d="M920.608 948.266C920.608 942.497 915.791 937.849 909.855 937.849C903.975 937.849 899.159 942.497 899.159 948.266V972.85H904.647V965.794H915.119V972.85H920.608V948.266ZM904.647 960.642V948.266C904.647 945.354 906.999 943.057 909.855 943.057C912.767 943.057 915.119 945.354 915.119 948.266V960.642H904.647Z" fill="white"/>
<path d="M958.708 937.961V955.21C955.964 949.106 952.38 943.394 948.236 937.961H942.748V972.85H948.236V947.37C953.276 955.098 956.916 963.498 958.708 972.85H964.196V937.961H958.708Z" fill="white"/>
<path d="M1007.78 948.266C1007.78 942.497 1002.97 937.849 997.033 937.849C991.153 937.849 986.336 942.497 986.336 948.266V972.85H991.825V965.794H1002.3V972.85H1007.78V948.266ZM991.825 960.642V948.266C991.825 945.354 994.177 943.057 997.033 943.057C999.945 943.057 1002.3 945.354 1002.3 948.266V960.642H991.825Z" fill="white"/>
<path d="M1054.57 955.434H1044.49V960.586H1049.08V966.354C1047.68 967.306 1046.17 967.81 1044.49 967.81C1039.12 967.81 1034.8 962.266 1034.8 955.434C1034.8 948.546 1039.12 943.001 1044.49 943.001C1046.73 943.001 1048.8 944.009 1050.43 945.633L1053.9 941.601C1051.44 939.305 1048.24 937.849 1044.49 937.849C1035.08 937.849 1029.32 946.866 1029.32 955.434C1029.32 963.498 1035.03 972.962 1043.93 972.962C1045.72 972.962 1047.46 972.57 1049.08 971.506V972.85H1054.57V955.434Z" fill="white"/>
<path d="M1076.79 972.85H1093.93V967.698H1082.28V958.626H1092.64V953.474H1082.28V943.17H1093.93V937.961H1076.79V972.85Z" fill="white"/>
<path d="M1153.93 948.266C1153.93 942.497 1149.11 937.849 1143.18 937.849C1139.98 937.849 1137.13 939.193 1135.17 941.321C1133.26 939.193 1130.41 937.849 1127.22 937.849C1121.33 937.849 1116.52 942.497 1116.52 948.266V972.85H1122.01V948.266C1122.01 945.354 1124.36 943.001 1127.22 943.001C1130.13 943.001 1132.48 945.354 1132.48 948.266V972.85H1137.97V948.266C1137.97 945.354 1140.32 943.001 1143.18 943.001C1146.09 943.001 1148.44 945.354 1148.44 948.266V972.85H1153.93V948.266Z" fill="white"/>
<path d="M102.547 830.354H58.2275V837.4H94.7588C92.5335 867.07 75.4732 889.137 52.2935 889.137C25.2196 889.137 8.15932 862.249 8.15932 828.685C8.15932 795.121 25.5905 768.047 52.6644 768.047C70.8373 768.047 84.0033 779.915 91.05 797.902L98.4675 795.121C90.3082 774.537 74.546 761 52.6644 761C20.2128 761 0 791.226 0 828.685C0 866.143 19.8419 896.184 52.2934 896.184C81.4072 896.184 102.547 868.925 102.547 832.394L102.547 830.354Z" fill="white"/>
<path d="M214.366 893.774L177.835 835.361C199.716 835.361 213.81 819.042 213.81 799.386C213.81 779.729 200.273 763.411 179.318 763.411H124.8V893.774H132.588V835.361H168.563L205.094 893.774H214.366ZM132.588 828.314V770.457H178.762C195.266 770.457 205.65 783.624 205.65 799.386C205.65 815.148 195.266 828.314 178.762 828.314H132.588Z" fill="white"/>
<path d="M318.026 840.924C318.026 872.263 309.31 889.138 280.753 889.138C252.195 889.138 243.48 872.263 243.48 840.924V763.411H235.691V839.997C235.691 876.342 246.818 896.184 280.753 896.184C314.688 896.184 325.814 876.342 325.814 839.997V763.411H318.026L318.026 840.924Z" fill="white"/>
<path d="M360.491 893.773V836.473H407.221C428.176 836.473 441.713 819.598 441.713 799.942C441.713 780.286 428.176 763.411 407.221 763.411H352.703V893.773H360.491ZM360.491 829.427V770.457H406.665C423.169 770.457 433.554 784.18 433.554 799.942C433.554 815.704 423.169 829.427 406.665 829.427H360.491Z" fill="white"/>
<path d="M507.914 896.184C540.366 896.184 560.208 866.143 560.208 828.685C560.208 791.226 540.366 761 507.914 761C475.462 761 455.621 791.226 455.621 828.685C455.621 866.143 475.462 896.184 507.914 896.184ZM507.914 889.137C480.84 889.137 463.78 862.249 463.78 828.685C463.78 795.121 480.84 768.047 507.914 768.047C535.173 768.047 552.048 795.121 552.048 828.685C552.048 862.249 535.173 889.137 507.914 889.137Z" fill="white"/>
<path d="M620.475 868.183C629.005 887.654 644.025 896.184 662.013 896.184C685.564 896.184 703.922 883.389 703.922 860.765C703.922 845.189 694.65 833.877 661.827 821.267C638.277 812.181 630.674 805.876 630.674 791.968C630.674 775.835 644.767 768.047 661.271 768.047C677.219 768.047 688.901 775.093 697.061 787.703L703.18 782.882C693.908 768.603 679.444 761 661.827 761C640.131 761 622.515 771.385 622.515 792.71C622.515 807.916 631.416 818.671 657.006 827.943C686.491 838.698 695.763 848.156 695.763 860.024C695.763 877.826 683.338 889.138 662.384 889.138C645.694 889.138 633.27 880.422 627.336 864.103L620.475 868.183Z" fill="white"/>
<path d="M818.708 893.774L772.163 763.411H763.447L716.902 893.774H725.062L738.413 856.13H797.197L810.548 893.774H818.708ZM794.972 849.454H740.638L767.712 772.868L794.972 849.454Z" fill="white"/>
<path d="M929.043 893.774V763.411H921.255V881.535L844.854 763.411H836.324V893.774H844.113V775.835L920.328 893.774H929.043Z" fill="white"/>
<path d="M995.059 893.774V770.272H1034.93V763.411H947.587V770.457H987.271V893.774H995.059Z" fill="white"/>
<path d="M1087.22 896.184C1119.67 896.184 1139.52 866.143 1139.52 828.685C1139.52 791.226 1119.67 761 1087.22 761C1054.77 761 1034.93 791.226 1034.93 828.685C1034.93 866.143 1054.77 896.184 1087.22 896.184ZM1087.22 889.137C1060.15 889.137 1043.09 862.249 1043.09 828.685C1043.09 795.121 1060.15 768.047 1087.22 768.047C1114.48 768.047 1131.36 795.121 1131.36 828.685C1131.36 862.249 1114.48 889.137 1087.22 889.137Z" fill="white"/>
<path d="M1155.28 868.183C1163.81 887.654 1178.83 896.184 1196.82 896.184C1220.37 896.184 1238.72 883.389 1238.72 860.765C1238.72 845.189 1229.45 833.877 1196.63 821.267C1173.08 812.181 1165.48 805.876 1165.48 791.968C1165.48 775.835 1179.57 768.047 1196.07 768.047C1212.02 768.047 1223.7 775.093 1231.86 787.703L1237.98 782.882C1228.71 768.603 1214.25 761 1196.63 761C1174.93 761 1157.32 771.385 1157.32 792.71C1157.32 807.916 1166.22 818.671 1191.81 827.943C1221.29 838.698 1230.57 848.156 1230.57 860.024C1230.57 877.826 1218.14 889.138 1197.19 889.138C1180.5 889.138 1168.07 880.422 1162.14 864.103L1155.28 868.183Z" fill="white"/>
<path fill-rule="evenodd" clip-rule="evenodd" d="M312.191 21.5998C295.602 33.4803 270.834 50.806 257.148 60.0995C234.967 75.1639 193.242 115.896 193.242 122.483C193.242 123.873 199.78 125.009 207.771 125.009H222.3V150.753C222.3 181.105 221.735 180.708 262.669 179.192L288.489 178.234L290.103 152.428L291.718 126.621H309.476H327.234L328.218 141.944C328.909 152.702 330.591 157.266 333.868 157.266C337.882 157.266 338.534 182.531 338.534 337.91C338.534 448.841 339.709 518.553 341.579 518.553C343.251 518.553 345.066 512.382 345.615 504.844L346.606 491.134L365.978 489.521C377.182 488.589 389.092 485.373 394.229 481.892L403.108 475.876V316.949C403.108 160.731 403.218 157.989 409.566 156.331C414.845 154.953 416.023 151.931 416.023 139.776V124.909L507.234 125.763L598.445 126.621L599.243 162.105C600.263 207.592 601.335 211.759 613.087 215.853C621.944 218.937 622.66 220.372 622.66 235.001C622.66 255.152 628.443 255.753 629.747 235.733C630.593 222.792 632.104 219.898 640.418 215.321L650.104 209.985L651.719 168.305L653.333 126.621L689.656 125.709C709.635 125.209 725.979 123.638 725.979 122.221C725.979 118.873 681.294 78.8057 672.111 73.9219C668.23 71.8574 654.428 70.1542 641.439 70.1317C622.079 70.0994 592.969 63.7704 480.084 35.0448L342.35 0L312.191 21.5998ZM351.449 11.1483C351.449 12.6354 364.189 26.5256 379.765 42.0125L408.08 70.1703H496.534C545.188 70.1703 584.387 69.5768 583.648 68.8478C582.905 68.122 532.902 55.0189 472.525 39.7287C412.149 24.4385 360.205 11.1451 357.099 10.187C353.993 9.22896 351.449 9.66123 351.449 11.1483ZM294.95 41.9448L256.709 68.5575L293.387 69.4768C313.563 69.98 331.973 69.6639 334.301 68.7703C339.064 66.9445 340.575 15.3321 335.864 15.3321C334.395 15.3321 315.985 27.3094 294.95 41.9448ZM344.991 40.4222V66.9446H369.698H394.404L375.6 46.7835C365.258 35.6965 354.142 23.7611 350.893 20.2611C345.14 14.058 344.991 14.5612 344.991 40.4222ZM251.375 84.7057L258.975 92.7863L266.469 85.7541C270.589 81.8863 273.96 78.2509 273.96 77.6735C273.96 77.0961 267.17 76.6219 258.869 76.6219H243.775L251.375 84.7057ZM303.9 85.4186L312.704 94.2185L321.509 85.4186L330.317 76.6219H312.704H295.092L303.9 85.4186ZM413.553 85.296C422.041 93.7766 422.384 93.8379 428.815 88.0218C438.747 79.0444 436.9 76.6219 420.133 76.6219H404.868L413.553 85.296ZM468.564 85.4186L477.368 94.2185L486.173 85.4186L494.981 76.6219H477.368H459.756L468.564 85.4186ZM523.452 85.4186L532.257 94.2185L541.061 85.4186L549.869 76.6219H532.257H514.644L523.452 85.4186ZM574.23 79.3477C574.23 80.8477 577.19 84.7508 580.81 88.0218C587.241 93.8379 587.584 93.7766 596.072 85.296L604.757 76.6219H589.492C581.097 76.6219 574.23 77.8477 574.23 79.3477ZM629.118 79.4767C629.118 81.0476 632.573 84.5928 636.799 87.3605C644.005 92.0798 644.932 91.9024 651.89 84.5057L659.303 76.6219H644.209C635.908 76.6219 629.118 77.9057 629.118 79.4767ZM271.296 90.5379L264.28 97.9991L273.963 107.27L283.646 116.538V99.8055C283.646 81.1799 281.563 79.6186 271.296 90.5379ZM290.103 96.8572C290.103 113.609 292.528 115.454 301.514 105.531C307.335 99.1056 307.274 98.7636 298.785 90.2831L290.103 81.6057V96.8572ZM326.165 90.5573L319.126 98.0443L327.214 105.638L335.305 113.231V98.1507C335.305 89.8572 334.831 83.0735 334.253 83.0735C333.675 83.0735 330.036 86.4412 326.165 90.5573ZM350.374 85.2251C347.681 87.9121 347.542 113.038 350.18 119.905C351.685 123.821 356.938 125.009 372.781 125.009H393.422V104.041V83.0735H372.975C361.726 83.0735 351.555 84.0412 350.374 85.2251ZM435.563 90.9218L427.663 99.3604L434.669 106.36C443.557 115.244 445.74 112.944 444.478 96.0153L443.467 82.4831L435.563 90.9218ZM453.14 95.983C453.218 103.086 453.977 109.228 454.829 109.634C455.685 110.041 459.933 107.889 464.27 104.854L472.161 99.3346L464.515 91.2024C460.311 86.7315 456.001 83.0735 454.935 83.0735C453.873 83.0735 453.066 88.8831 453.14 95.983ZM490.451 90.9218L482.551 99.3604L489.557 106.36C498.445 115.244 500.628 112.944 499.366 96.0153L498.355 82.4831L490.451 90.9218ZM507.318 97.5894C506.792 113.718 508.648 114.957 519.791 105.928L527.413 99.7507L519.587 91.4121C515.28 86.8251 510.866 83.0735 509.775 83.0735C508.687 83.0735 507.58 89.6057 507.318 97.5894ZM545.733 90.5379C536.958 99.8733 536.987 100.557 546.473 106.764C554.225 111.841 554.228 111.838 555.374 97.4572C556.004 89.5476 555.671 83.0735 554.638 83.0735C553.602 83.0735 549.595 86.4347 545.733 90.5379ZM564.544 96.8572C564.544 113.609 566.968 115.454 575.954 105.531C581.775 99.1056 581.714 98.7636 573.226 90.2831L564.544 81.6057V96.8572ZM600.605 90.5573L593.567 98.0443L601.312 105.315L609.058 112.583L610.233 97.8282C610.879 89.7121 610.559 83.0735 609.526 83.0735C608.49 83.0735 604.476 86.4412 600.605 90.5573ZM619.432 97.4572C619.432 110.88 620.01 112.025 625.347 109.17C637.655 102.589 638.465 97.9862 628.705 90.0863L619.432 82.5832V97.4572ZM655.706 90.983L648.396 97.9056L658.128 107.222L667.862 116.538L667.539 107.064C667.362 101.854 666.274 94.5443 665.118 90.825L663.019 84.0605L655.706 90.983ZM673.813 97.5894C675.101 113.757 677.071 115.093 685.649 105.622C691.354 99.3249 691.306 98.9024 683.974 91.1057C679.821 86.6863 675.576 83.0735 674.539 83.0735C673.506 83.0735 673.18 89.6057 673.813 97.5894ZM235.386 98.3959C230.476 116.063 230.882 116.502 243.378 106.98C254.187 98.741 254.491 97.9927 249.334 92.2992C241.553 83.7089 239.18 84.7476 235.386 98.3959ZM406.337 97.983C406.337 105.17 407.073 105.835 411.219 102.396C414.935 99.3153 415.226 97.2895 412.439 93.9347C407.283 87.7283 406.337 88.354 406.337 97.983ZM216.272 104.044C204.162 117.828 204.032 118.557 213.686 118.557C219.556 118.557 222.026 115.925 224.883 106.625C226.898 100.06 228.064 94.2056 227.47 93.6121C226.876 93.0185 221.836 97.7153 216.272 104.044ZM249.118 110.389L240.058 118.354L257.571 118.454L275.087 118.557L267.502 110.493C263.331 106.057 259.527 102.428 259.046 102.428C258.569 102.428 254.1 106.012 249.118 110.389ZM306.596 109.202C296.79 117.193 298.937 119.215 315.894 117.954L329.439 116.944L321.88 109.928C314.357 102.951 314.28 102.947 306.596 109.202ZM414.786 108.46C407.05 117.002 408.235 118.557 422.48 118.557C437.207 118.557 438.437 116.073 427.601 108.209C420.421 102.996 419.726 103.009 414.786 108.46ZM469.797 108.328C461.774 117.186 463.065 118.557 479.454 118.557H494.455L485.747 110.493C475.354 100.87 476.419 101.015 469.797 108.328ZM522.454 110.618L514.986 118.557H532.089C547.193 118.557 548.704 117.97 545.026 113.541C536.312 103.054 530.3 102.273 522.454 110.618ZM635.924 109.202C626.118 117.193 628.265 119.215 645.223 117.954L658.767 116.944L651.209 109.928C643.686 102.951 643.608 102.947 635.924 109.202ZM579.073 112.105C573.306 118.473 573.432 118.557 588.759 118.557C604.086 118.557 604.212 118.473 598.445 112.105C595.232 108.557 590.874 105.654 588.759 105.654C586.644 105.654 582.285 108.557 579.073 112.105ZM688.849 112.105C683.079 118.473 683.208 118.557 698.842 118.486L714.679 118.415L706.607 112.105C696.53 104.231 695.981 104.231 688.849 112.105ZM764.724 194.363V270.169H717.1L669.477 270.165L669.997 341.387C670.284 380.558 671.01 412.945 671.611 413.358C672.215 413.774 685.782 424.264 701.764 436.67C717.746 449.077 732.488 460.231 734.525 461.457C736.569 462.686 745.193 457.931 753.768 450.854C762.318 443.796 778.455 434.041 789.63 429.177C800.808 424.312 810.775 417.741 811.782 414.57C816.083 401.025 849.571 394.503 884.993 400.306L900.329 402.822V260.688V118.557H832.526H764.724V194.363ZM609.387 126.454C609.19 127.431 609.029 131.138 609.029 134.686C609.029 138.234 609.19 150.537 609.387 162.024L609.746 182.911L617.817 179.847C622.964 177.892 628.892 177.921 634.171 179.927C638.726 181.656 643.021 183.073 643.715 183.073C644.409 183.073 644.661 170.373 644.28 154.847L643.579 126.621L626.664 125.647C617.359 125.109 609.584 125.473 609.387 126.454ZM789.691 146.783C789.01 148.112 788.174 153.921 787.835 159.686C787.253 169.64 787.793 170.169 798.573 170.169C809.664 170.169 809.925 169.873 809.925 157.266C809.925 145.137 809.354 144.363 800.43 144.363C795.206 144.363 790.376 145.454 789.691 146.783ZM822.84 157.266C822.84 169.453 823.38 170.169 832.526 170.169C841.673 170.169 842.213 169.453 842.213 157.266C842.213 145.079 841.673 144.363 832.526 144.363C823.38 144.363 822.84 145.079 822.84 157.266ZM853.858 149.466C852.78 152.273 851.899 158.079 851.899 162.37C851.899 169.134 853.4 170.169 863.199 170.169C874.232 170.169 874.5 169.863 874.5 157.266C874.5 145.186 873.906 144.363 865.159 144.363C859.619 144.363 855.021 146.441 853.858 149.466ZM350.509 159.279C344.749 165.034 349.88 166.944 371.089 166.944C387.943 166.944 393.609 165.882 392.628 162.911C391.178 158.521 354.439 155.353 350.509 159.279ZM351.449 176.237C351.449 177.802 356.327 182.798 362.294 187.347L373.139 195.608L383.913 184.502L394.688 173.395H373.068C361.177 173.395 351.449 174.676 351.449 176.237ZM789.41 182.973C787.728 187.389 789.362 205.637 791.438 205.643C810.716 205.718 809.925 206.272 809.925 192.698C809.925 180.221 809.561 179.773 799.994 180.502C794.531 180.918 789.769 182.027 789.41 182.973ZM822.84 193.127C822.84 204.895 823.428 205.653 832.526 205.653C841.573 205.653 842.213 204.85 842.213 193.521C842.213 182.282 841.502 181.363 832.526 180.995C823.36 180.621 822.84 181.273 822.84 193.127ZM854.688 181.36C853.855 182.195 853.771 188.002 854.504 194.263C855.683 204.366 856.89 205.653 865.165 205.653C873.902 205.653 874.5 204.827 874.5 192.75C874.5 180.734 873.873 179.847 865.353 179.847C860.319 179.847 855.521 180.527 854.688 181.36ZM344.991 201.682C344.991 212.737 346.17 221.782 347.613 221.782C349.056 221.782 353.58 217.259 357.671 211.734L365.109 201.682L355.049 191.634L344.991 181.582V201.682ZM385.282 192.821L375.932 202.572L386.293 212.921L396.651 223.272V203.172C396.651 192.118 396.196 183.073 395.64 183.073C395.085 183.073 390.423 187.46 385.282 192.821ZM624.543 195.543C623.151 197.792 622.886 200.501 623.952 201.566C626.842 204.453 629.993 200.208 628.43 195.53C627.339 192.253 626.577 192.253 624.543 195.543ZM360.124 217.927C355.352 222.901 351.449 227.982 351.449 229.217C351.449 230.45 361.177 231.459 373.068 231.459H394.688L383.736 220.169C377.711 213.959 371.887 208.879 370.792 208.879C369.697 208.879 364.896 212.95 360.124 217.927ZM789.229 218.556C788.829 219.443 788.732 225.25 789.013 231.459C789.472 241.637 790.527 242.849 799.723 243.759C809.819 244.759 809.925 244.62 809.925 230.182C809.925 215.875 809.728 215.605 799.942 216.266C794.45 216.64 789.633 217.669 789.229 218.556ZM822.517 221.782C820.59 241.027 821.362 242.749 831.881 242.749C841.667 242.749 842.213 242.111 842.213 230.653C842.213 219.363 841.567 218.556 832.526 218.556C827.199 218.556 822.695 220.008 822.517 221.782ZM853.616 229.853C853.674 236.066 854.763 241.146 856.038 241.143C857.313 241.14 861.988 241.137 866.428 241.137C873.499 241.137 874.5 239.74 874.5 229.846C874.5 219.259 873.847 218.556 864.006 218.556C854.146 218.556 853.52 219.237 853.616 229.853ZM464.454 283.072V334.684H440.238H416.023V399.2C416.023 434.683 417.311 463.715 418.887 463.715C420.462 463.715 433.904 457.289 448.752 449.431C480.555 432.609 533.761 411.093 564.037 402.809L585.53 396.929L586.392 314.194L587.254 231.459H525.854H464.454V283.072ZM360.389 248.333L370.821 258.756L381.253 248.333L391.685 237.911H370.821H349.957L360.389 248.333ZM344.991 265.723C344.991 285.368 344.352 285.188 362.01 270.559C367.412 266.081 367.244 265.32 358.985 256.704C354.174 251.691 349.06 247.588 347.616 247.588C346.173 247.588 344.991 255.749 344.991 265.723ZM385.282 257.336L375.932 267.088L386.293 277.436L396.651 287.788V267.688C396.651 256.633 396.196 247.588 395.64 247.588C395.085 247.588 390.423 251.975 385.282 257.336ZM506.427 265.491V280.168L524.992 279.201C543.157 278.252 543.563 278.027 543.922 268.556C544.526 252.543 542.569 250.814 523.839 250.814H506.427V265.491ZM788.664 266.136C788.919 277.359 789.698 278.307 799.432 279.243C809.716 280.233 809.925 279.991 809.925 267.146C809.925 254.443 809.596 254.04 799.158 254.04C788.823 254.04 788.403 254.52 788.664 266.136ZM822.84 266.943C822.84 279.13 823.38 279.846 832.526 279.846C841.673 279.846 842.213 279.13 842.213 266.943C842.213 254.756 841.673 254.04 832.526 254.04C823.38 254.04 822.84 254.756 822.84 266.943ZM854.265 264.523C852.209 278.01 853.497 279.846 865.004 279.846C873.928 279.846 874.5 279.072 874.5 266.943C874.5 254.869 873.899 254.04 865.178 254.04C857.145 254.04 855.641 255.485 854.265 264.523ZM361.135 281.459L350.183 292.749H371.88H393.58L383.297 281.459C377.64 275.249 372.804 270.169 372.548 270.169C372.297 270.169 367.16 275.249 361.135 281.459ZM789.116 298.394C789.555 303.271 790.056 309.081 790.234 311.297C790.411 313.555 794.815 315.329 800.239 315.329C809.386 315.329 809.925 314.613 809.925 302.426C809.925 289.943 809.574 289.523 799.122 289.523C789.3 289.523 788.393 290.326 789.116 298.394ZM822.401 291.036C821.568 291.872 821.484 297.678 822.217 303.939C823.396 314.042 824.603 315.329 832.878 315.329C841.615 315.329 842.213 314.504 842.213 302.426C842.213 290.41 841.586 289.523 833.066 289.523C828.032 289.523 823.234 290.204 822.401 291.036ZM855.127 302.426C855.127 314.613 855.667 315.329 864.814 315.329C873.96 315.329 874.5 314.613 874.5 302.426C874.5 290.239 873.96 289.523 864.814 289.523C855.667 289.523 855.127 290.239 855.127 302.426ZM691.79 297.172C688.2 306.517 691.858 313.716 700.195 313.716C706.962 313.716 708.221 312.197 708.221 304.039C708.221 296.452 706.649 294.139 700.944 293.33C696.672 292.723 692.888 294.313 691.79 297.172ZM725.979 304.039C725.979 313.933 726.98 315.329 734.051 315.329C741.122 315.329 742.123 313.933 742.123 304.039C742.123 294.146 741.122 292.749 734.051 292.749C726.98 292.749 725.979 294.146 725.979 304.039ZM508.58 298.126C507.395 299.307 506.427 305.839 506.427 312.642V325.007H524.185H541.943V310.491V295.975H526.338C517.753 295.975 509.762 296.942 508.58 298.126ZM351.449 301.784C351.449 303.249 355.843 308.649 361.212 313.791L370.973 323.133L382.528 311.591L394.081 300.046L372.765 299.584C361.041 299.329 351.449 300.32 351.449 301.784ZM344.991 329.845C344.991 339.603 345.569 347.587 346.273 347.587C346.98 347.587 352.043 343.652 357.528 338.845L367.499 330.103L358.872 321.104C354.125 316.152 349.06 312.104 347.616 312.104C346.173 312.104 344.991 320.087 344.991 329.845ZM385.525 320.284L376.013 328.458L386.332 338.768L396.651 349.077V330.591C396.651 320.423 396.286 312.107 395.844 312.107C395.401 312.11 390.755 315.791 385.525 320.284ZM691.506 333.4C688.181 342.052 692.113 349.2 700.195 349.2C706.91 349.2 708.221 347.665 708.221 339.79C708.221 332.229 706.733 330.271 700.656 329.823C696.498 329.516 692.378 331.126 691.506 333.4ZM725.979 338.555C725.979 346.039 727.364 347.587 734.051 347.587C740.737 347.587 742.123 346.039 742.123 338.555C742.123 331.071 740.737 329.523 734.051 329.523C727.364 329.523 725.979 331.071 725.979 338.555ZM359.521 347.587L350.241 357.264H370.217C381.205 357.264 390.193 356.468 390.193 355.497C390.193 353.355 373.178 338.155 370.618 338.013C369.617 337.955 364.625 342.265 359.521 347.587ZM507.831 352.4C504.499 370.158 507.25 373.393 525.699 373.393H541.943V357.264V341.136H525.944C510.227 341.136 509.911 341.332 507.831 352.4ZM822.84 357.264C822.84 369.451 823.38 370.168 832.526 370.168C841.673 370.168 842.213 369.451 842.213 357.264C842.213 345.078 841.673 344.361 832.526 344.361C823.38 344.361 822.84 345.078 822.84 357.264ZM438.624 358.877C438.624 366.403 439.699 366.942 454.768 366.942C469.836 366.942 470.911 366.403 470.911 358.877C470.911 351.352 469.836 350.813 454.768 350.813C439.699 350.813 438.624 351.352 438.624 358.877ZM351.449 366.339C351.449 367.78 355.843 373.164 361.212 378.306L370.973 387.648L382.951 375.684L394.93 363.716H373.188C361.232 363.716 351.449 364.897 351.449 366.339ZM691.067 374.2C691.913 382.961 693.401 384.684 700.149 384.684C706.897 384.684 708.386 382.961 709.232 374.2C710.181 364.39 709.593 363.716 700.149 363.716C690.705 363.716 690.118 364.39 691.067 374.2ZM726.583 374.2C727.358 382.235 729.288 384.926 734.858 385.716C741.228 386.619 742.123 385.326 742.123 375.232C742.123 365.022 741.183 363.716 733.847 363.716C726.454 363.716 725.679 364.835 726.583 374.2ZM344.991 391.135C344.991 400.893 346.192 408.877 347.658 408.877C351.336 408.877 364.364 394.687 364.364 390.684C364.364 387.106 350.755 373.393 347.206 373.393C345.986 373.393 344.991 381.377 344.991 391.135ZM385.282 383.142L375.932 392.893L386.293 403.241L396.651 413.593V393.493C396.651 382.438 396.196 373.393 395.64 373.393C395.085 373.393 390.423 377.78 385.282 383.142ZM438.624 392.925C438.624 402.667 438.795 402.767 453.96 401.796C468.005 400.896 469.384 400.064 470.317 391.942C471.315 383.297 470.921 383.071 454.981 383.071C438.895 383.071 438.624 383.232 438.624 392.925ZM580.687 405.354C466.949 438.822 361.923 507.305 246.923 622.985L192.445 677.787L130.689 681.868C49.9617 687.203 50.5913 687.081 89.9235 689.832C158.856 694.658 614.724 696.878 755.037 693.071C951.466 687.742 1169.18 676.829 1173.94 672.075C1174.99 671.023 1162.89 669.974 1147.06 669.745C1131.22 669.513 1090.66 668.423 1056.92 667.326L995.576 665.326L1012.65 657.62C1040.82 644.901 1050.13 625.323 1036.04 608.427L1029.69 600.811L1029.58 608.282C1029.31 627.614 1012.76 638.381 968.765 647.875C951.546 651.591 934.915 655.959 931.809 657.584C927.024 660.091 926.159 659.055 926.159 650.836V641.133H859.97H793.782V651.155C793.782 659.433 792.797 660.775 788.132 658.862C785.026 657.588 770.132 653.797 755.037 650.436C716.154 641.784 693.372 629.733 688.713 615.356C685.194 604.501 684.929 604.349 681.307 611.114C671.808 628.843 679.934 644.484 704.611 655.962L721.136 663.649L708.221 663.662C684.477 663.678 668.185 647.23 667.975 623.023C667.888 612.746 669.864 607.765 676.741 600.93C683.76 593.953 686.327 587.279 688.994 569.04C692.268 546.64 692.068 545.318 682.153 523.392C671.759 500.421 639.217 431.832 636.621 427.425C635.837 426.093 635.876 425.006 636.709 425.006C637.538 425.006 644.348 436.161 651.838 449.796C659.329 463.431 672.692 486.825 681.536 501.786L697.618 528.986L703.562 515.718C706.833 508.418 714.088 495.799 719.686 487.67L729.863 472.892L722.269 464.728C708.835 450.277 650.757 404.919 639.869 400.377C625.153 394.232 615.819 395.019 580.687 405.354ZM360.124 408.248C355.352 413.222 351.449 417.941 351.449 418.732C351.449 419.522 356.172 419.977 361.942 419.741C367.715 419.506 376.704 419.145 381.918 418.935L391.401 418.554L382.122 408.877C377.017 403.554 371.932 399.2 370.821 399.2C369.71 399.2 364.896 403.27 360.124 408.248ZM837.37 408.306C827.926 410.529 827.687 411.064 827.787 429.893C827.842 440.512 828.807 470.973 829.927 497.586C831.051 524.198 831.258 540.892 830.392 534.682C829.524 528.473 826.208 502.653 823.021 477.309C819.834 451.964 816.464 430.461 815.53 429.528C811.795 425.799 769.983 449.667 752.577 465.463C720.171 494.879 699.113 545.076 696.482 599.198L695.306 623.391L707.072 629.139C718.85 634.891 753.3 642.994 774.261 644.936C783.886 645.83 785.671 644.868 787.321 637.907C788.474 633.03 791.406 629.949 794.734 630.11C797.763 630.259 829.269 630.623 864.752 630.917L929.265 631.456L931.309 639.597C933.152 646.93 934.525 647.549 945.092 645.83C970.854 641.639 999.735 634.636 1011.46 629.746L1023.82 624.585L1021.54 595.401C1016.93 536.64 1003.89 505.324 969.995 471.683C949.748 451.586 914.229 428.232 903.913 428.232C901.931 428.232 900.313 433.638 900.291 440.328C900.239 457.16 887.867 554.669 885.493 556.982C884.425 558.024 884.399 549.44 885.435 537.908C890.211 484.789 894.766 411.919 893.394 410.551C890.588 407.745 847.146 406.003 837.37 408.306ZM351.546 428.232C351.597 429.119 356.105 434.751 361.561 440.751L371.483 451.654L383.206 439.944C394.775 428.386 394.823 428.228 386.91 427.896C358.998 426.728 351.462 426.799 351.546 428.232ZM557.925 528.86C529.028 582.627 500.399 635.691 494.31 646.778L483.232 666.939H494.368H505.503L559.239 550.272C588.791 486.105 612.406 433.041 611.718 432.354C611.031 431.667 586.822 475.092 557.925 528.86ZM344.991 453.435C344.991 464.412 345.708 473.392 346.58 473.392C350.028 473.392 364.364 459.109 364.364 455.673C364.364 453.664 360.005 447.848 354.678 442.748L344.991 433.477V453.435ZM385.638 444.609C381.04 450.067 377.279 455.599 377.279 456.906C377.279 458.209 381.637 462.496 386.965 466.431L396.651 473.586V454.135C396.651 443.435 396.053 434.683 395.324 434.683C394.594 434.683 390.235 439.151 385.638 444.609ZM622.66 465.328C622.66 469.763 624.113 473.392 625.889 473.392C627.665 473.392 629.118 469.763 629.118 465.328C629.118 460.893 627.665 457.264 625.889 457.264C624.113 457.264 622.66 460.893 622.66 465.328ZM361.141 471.773L350.183 483.07H370.75H391.32L383.539 474.199C379.261 469.322 374.938 464.238 373.93 462.902C372.923 461.567 367.169 465.56 361.141 471.773ZM619.432 500.812C619.432 511.299 620.723 515.328 624.084 515.328C631.049 515.328 632.899 510.253 630.529 497.641C627.323 480.57 619.432 482.825 619.432 500.812ZM618.331 530.65C617.514 531.982 615.809 541.414 614.54 551.618L612.232 570.166H623.903C635.007 570.166 635.575 569.637 635.575 559.279C635.575 539.514 631.978 528.231 625.676 528.231C622.451 528.231 619.144 529.318 618.331 530.65ZM611.741 595.356C610.853 596.791 609.106 612.759 607.86 630.839L605.593 663.713H623.813H642.033V648.059C642.033 639.446 641.099 623.478 639.96 612.575L637.884 592.746H625.621C618.873 592.746 612.629 593.92 611.741 595.356Z" fill="white"/>
</svg>
