<svg width="1239" height="977" viewBox="0 0 1239 977" fill="none" xmlns="http://www.w3.org/2000/svg">
<path d="M100.176 934.953C90.7681 934.953 85 943.97 85 952.538C85 961.05 90.7681 970.066 100.176 970.066C103.928 970.066 107.12 968.666 109.585 966.37L106.112 962.338C104.488 963.962 102.416 964.914 100.176 964.914C94.8002 964.914 90.4881 959.37 90.4881 952.538C90.4881 945.65 94.8002 940.106 100.176 940.106C102.416 940.106 104.488 941.114 106.112 942.738L109.585 938.705C107.12 936.409 103.928 934.953 100.176 934.953Z" fill="black"/>
<path d="M145.96 934.953C136.552 934.953 130.784 943.97 130.784 952.538C130.784 961.05 136.552 970.066 145.96 970.066C155.368 970.066 161.136 961.05 161.136 952.538C161.136 943.97 155.368 934.953 145.96 934.953ZM145.96 940.106C151.336 940.106 155.648 945.65 155.648 952.538C155.648 959.37 151.336 964.914 145.96 964.914C140.584 964.914 136.272 959.37 136.272 952.538C136.272 945.65 140.584 940.106 145.96 940.106Z" fill="black"/>
<path d="M199.318 935.066V952.314C196.574 946.21 192.99 940.498 188.846 935.066H183.358V969.954H188.846V944.474C193.886 952.202 197.526 960.602 199.318 969.954H204.807V935.066H199.318Z" fill="black"/>
<path d="M243.814 960.378C243.814 948.73 231.438 949.458 231.438 943.13C231.438 941.45 233.006 940.106 234.574 940.106C235.918 940.106 237.038 940.946 237.486 942.122L241.462 938.145C239.894 936.185 237.374 934.953 234.574 934.953C229.869 934.953 226.005 938.481 226.005 943.242C226.005 954.05 238.326 951.586 238.326 960.378C238.326 962.898 236.03 964.914 233.566 964.914C231.998 964.914 230.653 964.186 229.869 963.01L226.005 966.818C227.853 968.834 230.542 970.066 233.566 970.066C239.054 970.066 243.814 965.922 243.814 960.378Z" fill="black"/>
<path d="M270.641 969.954H276.129V940.274H283.297V935.066H263.473V940.274H270.641V969.954Z" fill="black"/>
<path d="M310.998 935.066H304.222V969.954H309.71V960.882C310.046 960.882 310.438 960.882 310.774 960.938C312.678 966.146 318.334 969.954 324.27 969.954V964.802C320.91 964.802 317.55 962.73 316.206 959.874C320.91 957.858 324.27 953.21 324.27 947.946C324.27 940.778 318.278 935.066 310.998 935.066ZM309.71 955.618V940.274H310.998C315.254 940.274 318.726 943.69 318.726 947.946C318.726 952.146 315.254 955.73 310.998 955.73C310.55 955.73 310.102 955.73 309.71 955.618Z" fill="black"/>
<path d="M366.684 959.706V935.066H361.196V959.706C361.196 962.562 358.844 964.914 355.932 964.914C353.076 964.914 350.724 962.562 350.724 959.706V935.066H345.235V959.706C345.235 965.418 350.052 970.066 355.932 970.066C361.868 970.066 366.684 965.418 366.684 959.706Z" fill="black"/>
<path d="M403.319 934.953C393.91 934.953 388.142 943.97 388.142 952.538C388.142 960.546 393.238 969.002 401.695 970.01L401.023 972.474C402.087 972.25 404.383 972.026 404.383 973.874C404.383 975.33 402.591 975.666 400.967 975.162L401.359 976.674C403.879 977.514 406.959 976.786 406.959 973.818C406.959 972.138 405.559 971.242 403.991 971.074L404.271 970.066C407.631 969.842 410.487 968.442 412.727 966.37L409.255 962.338C407.631 963.962 405.559 964.914 403.319 964.914C397.942 964.914 393.63 959.37 393.63 952.538C393.63 945.65 397.942 940.106 403.319 940.106C405.559 940.106 407.631 941.114 409.255 942.738L412.727 938.705C410.263 936.409 407.071 934.953 403.319 934.953Z" fill="black"/>
<path d="M455.293 969.954V945.37C455.293 939.602 450.477 934.953 444.54 934.953C438.66 934.953 433.844 939.602 433.844 945.37V969.954H439.332V962.898H449.805V969.954H455.293ZM449.805 957.746H439.332V945.37C439.332 942.458 441.684 940.161 444.54 940.161C447.452 940.161 449.805 942.458 449.805 945.37V957.746ZM441.74 926.721C438.716 926.721 437.596 928.961 437.596 931.705H440.452C440.452 930.697 441.124 929.913 442.244 929.913C444.148 929.913 444.932 931.593 447.396 931.593C450.421 931.593 451.541 929.353 451.541 926.553H448.684C448.684 927.561 448.012 928.401 446.892 928.401C444.988 928.401 444.204 926.721 441.74 926.721Z" fill="black"/>
<path d="M492.554 934.953C483.146 934.953 477.378 943.97 477.378 952.538C477.378 961.05 483.146 970.066 492.554 970.066C501.963 970.066 507.731 961.05 507.731 952.538C507.731 943.97 501.963 934.953 492.554 934.953ZM492.554 940.106C497.931 940.106 502.243 945.65 502.243 952.538C502.243 959.37 497.931 964.914 492.554 964.914C487.178 964.914 482.866 959.37 482.866 952.538C482.866 945.65 487.178 940.106 492.554 940.106Z" fill="black"/>
<path d="M555.278 969.954H572.414V964.802H560.766V955.73H571.126V950.578H560.766V940.274H572.414V935.066H555.278V969.954Z" fill="black"/>
<path d="M625.166 969.954H630.655V940.274H637.823V935.066H617.998V940.274H625.166V969.954Z" fill="black"/>
<path d="M658.431 969.954H675.567V964.802H663.919V955.73H674.279V950.578H663.919V940.274H675.567V935.066H658.431V969.954Z" fill="black"/>
<path d="M703.181 935.066H696.405V969.954H701.893V960.882C702.229 960.882 702.621 960.882 702.957 960.938C704.861 966.146 710.517 969.954 716.453 969.954V964.802C713.093 964.802 709.733 962.73 708.389 959.874C713.093 957.858 716.453 953.21 716.453 947.946C716.453 940.778 710.461 935.066 703.181 935.066ZM701.893 955.618V940.274H703.181C707.437 940.274 710.909 943.69 710.909 947.946C710.909 952.146 707.437 955.73 703.181 955.73C702.733 955.73 702.285 955.73 701.893 955.618Z" fill="black"/>
<path d="M744.179 935.066H737.402V969.954H742.89V960.882C743.227 960.882 743.618 960.882 743.954 960.938C745.859 966.146 751.515 969.954 757.451 969.954V964.802C754.091 964.802 750.731 962.73 749.387 959.874C754.091 957.858 757.451 953.21 757.451 947.946C757.451 940.778 751.459 935.066 744.179 935.066ZM742.89 955.618V940.274H744.179C748.435 940.274 751.907 943.69 751.907 947.946C751.907 952.146 748.435 955.73 744.179 955.73C743.731 955.73 743.283 955.73 742.89 955.618Z" fill="black"/>
<path d="M799.864 945.37C799.864 939.602 795.048 934.953 789.112 934.953C783.232 934.953 778.416 939.602 778.416 945.37V969.954H783.904V962.898H794.376V969.954H799.864V945.37ZM783.904 957.746V945.37C783.904 942.458 786.256 940.162 789.112 940.162C792.024 940.162 794.376 942.458 794.376 945.37V957.746H783.904Z" fill="black"/>
<path d="M828.628 935.066H821.852V969.954H827.34V960.882C827.788 960.882 828.18 960.938 828.628 960.938C835.909 960.938 841.901 955.002 841.901 947.946C841.901 940.778 835.909 935.066 828.628 935.066ZM827.34 955.618V940.274H828.628C832.885 940.274 836.357 943.69 836.357 947.946C836.357 952.146 832.885 955.73 828.628 955.73C828.18 955.73 827.732 955.73 827.34 955.618Z" fill="black"/>
<path d="M862.119 935.066V969.954H878.584V964.802H867.608V935.066H862.119Z" fill="black"/>
<path d="M920.608 945.37C920.608 939.602 915.792 934.953 909.855 934.953C903.975 934.953 899.159 939.602 899.159 945.37V969.954H904.647V962.898H915.12V969.954H920.608V945.37ZM904.647 957.746V945.37C904.647 942.458 906.999 940.162 909.855 940.162C912.768 940.162 915.12 942.458 915.12 945.37V957.746H904.647Z" fill="black"/>
<path d="M958.708 935.066V952.314C955.964 946.21 952.38 940.498 948.236 935.066H942.748V969.954H948.236V944.474C953.276 952.202 956.916 960.602 958.708 969.954H964.196V935.066H958.708Z" fill="black"/>
<path d="M1007.78 945.37C1007.78 939.602 1002.97 934.953 997.033 934.953C991.152 934.953 986.336 939.602 986.336 945.37V969.954H991.824V962.898H1002.3V969.954H1007.78V945.37ZM991.824 957.746V945.37C991.824 942.458 994.177 940.162 997.033 940.162C999.945 940.162 1002.3 942.458 1002.3 945.37V957.746H991.824Z" fill="black"/>
<path d="M1054.57 952.538H1044.49V957.69H1049.08V963.458C1047.68 964.41 1046.17 964.914 1044.49 964.914C1039.12 964.914 1034.8 959.37 1034.8 952.538C1034.8 945.65 1039.12 940.106 1044.49 940.106C1046.73 940.106 1048.8 941.114 1050.43 942.738L1053.9 938.705C1051.44 936.409 1048.24 934.953 1044.49 934.953C1035.08 934.953 1029.32 943.97 1029.32 952.538C1029.32 960.602 1035.03 970.066 1043.93 970.066C1045.72 970.066 1047.46 969.674 1049.08 968.61V969.954H1054.57V952.538Z" fill="black"/>
<path d="M1076.79 969.954H1093.93V964.802H1082.28V955.73H1092.64V950.578H1082.28V940.274H1093.93V935.066H1076.79V969.954Z" fill="black"/>
<path d="M1153.93 945.37C1153.93 939.602 1149.11 934.953 1143.18 934.953C1139.98 934.953 1137.13 936.297 1135.17 938.425C1133.26 936.297 1130.41 934.953 1127.22 934.953C1121.33 934.953 1116.52 939.602 1116.52 945.37V969.954H1122.01V945.37C1122.01 942.458 1124.36 940.106 1127.22 940.106C1130.13 940.106 1132.48 942.458 1132.48 945.37V969.954H1137.97V945.37C1137.97 942.458 1140.32 940.106 1143.18 940.106C1146.09 940.106 1148.44 942.458 1148.44 945.37V969.954H1153.93V945.37Z" fill="black"/>
<path d="M102.547 827.458H58.2275V834.504H94.7588C92.5335 864.174 75.4732 886.242 52.2935 886.242C25.2196 886.242 8.15932 859.353 8.15932 825.789C8.15932 792.225 25.5905 765.151 52.6644 765.151C70.8373 765.151 84.0033 777.019 91.05 795.006L98.4675 792.225C90.3082 771.641 74.546 758.104 52.6644 758.104C20.2128 758.104 0 788.33 0 825.789C0 863.247 19.8419 893.288 52.2934 893.288C81.4072 893.288 102.547 866.029 102.547 829.498L102.547 827.458Z" fill="black"/>
<path d="M214.366 890.878L177.835 832.465C199.716 832.465 213.81 816.146 213.81 796.49C213.81 776.833 200.273 760.515 179.318 760.515H124.8V890.878H132.588V832.465H168.563L205.094 890.878H214.366ZM132.588 825.418V767.561H178.762C195.266 767.561 205.651 780.728 205.651 796.49C205.651 812.252 195.266 825.418 178.762 825.418H132.588Z" fill="black"/>
<path d="M318.026 838.028C318.026 869.367 309.31 886.242 280.753 886.242C252.195 886.242 243.48 869.367 243.48 838.028V760.515H235.691V837.101C235.691 873.446 246.818 893.288 280.753 893.288C314.688 893.288 325.814 873.446 325.814 837.101V760.515H318.026L318.026 838.028Z" fill="black"/>
<path d="M360.491 890.878V833.577H407.221C428.176 833.577 441.713 816.702 441.713 797.046C441.713 777.39 428.176 760.515 407.221 760.515H352.703V890.878H360.491ZM360.491 826.531V767.561H406.665C423.169 767.561 433.554 781.284 433.554 797.046C433.554 812.808 423.169 826.531 406.665 826.531H360.491Z" fill="black"/>
<path d="M507.914 893.288C540.366 893.288 560.208 863.247 560.208 825.789C560.208 788.33 540.366 758.104 507.914 758.104C475.462 758.104 455.621 788.33 455.621 825.789C455.621 863.247 475.462 893.288 507.914 893.288ZM507.914 886.242C480.84 886.242 463.78 859.353 463.78 825.789C463.78 792.225 480.84 765.151 507.914 765.151C535.173 765.151 552.048 792.225 552.048 825.789C552.048 859.353 535.173 886.242 507.914 886.242Z" fill="black"/>
<path d="M620.475 865.287C629.005 884.758 644.025 893.288 662.013 893.288C685.563 893.288 703.922 880.493 703.922 857.87C703.922 842.293 694.65 830.981 661.827 818.371C638.277 809.285 630.674 802.98 630.674 789.072C630.674 772.939 644.767 765.151 661.271 765.151C677.219 765.151 688.901 772.197 697.061 784.807L703.18 779.986C693.908 765.707 679.444 758.104 661.827 758.104C640.131 758.104 622.515 768.489 622.515 789.814C622.515 805.02 631.416 815.775 657.006 825.047C686.491 835.803 695.763 845.26 695.763 857.128C695.763 874.93 683.338 886.242 662.384 886.242C645.694 886.242 633.27 877.526 627.336 861.208L620.475 865.287Z" fill="black"/>
<path d="M818.708 890.878L772.163 760.515H763.447L716.902 890.878H725.062L738.413 853.234H797.197L810.548 890.878H818.708ZM794.972 846.558H740.638L767.712 769.972L794.972 846.558Z" fill="black"/>
<path d="M929.043 890.878V760.515H921.255V878.639L844.855 760.515H836.324V890.878H844.113V772.939L920.328 890.878H929.043Z" fill="black"/>
<path d="M995.059 890.878V767.376H1034.93V760.515H947.587V767.561H987.271V890.878H995.059Z" fill="black"/>
<path d="M1087.22 893.288C1119.67 893.288 1139.52 863.247 1139.52 825.789C1139.52 788.33 1119.67 758.104 1087.22 758.104C1054.77 758.104 1034.93 788.33 1034.93 825.789C1034.93 863.247 1054.77 893.288 1087.22 893.288ZM1087.22 886.242C1060.15 886.242 1043.09 859.353 1043.09 825.789C1043.09 792.225 1060.15 765.151 1087.22 765.151C1114.48 765.151 1131.36 792.225 1131.36 825.789C1131.36 859.353 1114.48 886.242 1087.22 886.242Z" fill="black"/>
<path d="M1155.28 865.287C1163.81 884.758 1178.83 893.288 1196.82 893.288C1220.37 893.288 1238.72 880.493 1238.72 857.87C1238.72 842.293 1229.45 830.981 1196.63 818.371C1173.08 809.285 1165.48 802.98 1165.48 789.072C1165.48 772.939 1179.57 765.151 1196.07 765.151C1212.02 765.151 1223.7 772.197 1231.86 784.807L1237.98 779.986C1228.71 765.707 1214.25 758.104 1196.63 758.104C1174.93 758.104 1157.32 768.489 1157.32 789.814C1157.32 805.02 1166.22 815.775 1191.81 825.047C1221.29 835.803 1230.57 845.26 1230.57 857.128C1230.57 874.93 1218.14 886.242 1197.19 886.242C1180.5 886.242 1168.07 877.526 1162.14 861.208L1155.28 865.287Z" fill="black"/>
<path fill-rule="evenodd" clip-rule="evenodd" d="M312.191 21.5998C295.602 33.4803 270.834 50.806 257.148 60.0995C234.967 75.1639 193.242 115.896 193.242 122.483C193.242 123.873 199.78 125.009 207.771 125.009H222.3V150.753C222.3 181.105 221.735 180.708 262.669 179.192L288.489 178.234L290.103 152.428L291.718 126.621H309.476H327.234L328.218 141.944C328.909 152.702 330.591 157.266 333.868 157.266C337.882 157.266 338.534 182.531 338.534 337.91C338.534 448.841 339.709 518.553 341.579 518.553C343.251 518.553 345.066 512.382 345.615 504.844L346.606 491.134L365.978 489.521C377.182 488.589 389.092 485.373 394.229 481.892L403.108 475.876V316.949C403.108 160.731 403.218 157.989 409.566 156.331C414.845 154.953 416.023 151.931 416.023 139.776V124.909L507.234 125.763L598.445 126.621L599.243 162.105C600.263 207.592 601.335 211.759 613.087 215.853C621.944 218.937 622.66 220.372 622.66 235.001C622.66 255.152 628.443 255.753 629.747 235.733C630.593 222.792 632.104 219.898 640.418 215.321L650.104 209.985L651.719 168.305L653.333 126.621L689.656 125.709C709.635 125.209 725.979 123.638 725.979 122.221C725.979 118.873 681.294 78.8057 672.111 73.9219C668.23 71.8574 654.428 70.1542 641.439 70.1317C622.079 70.0994 592.969 63.7704 480.084 35.0448L342.35 0L312.191 21.5998ZM351.449 11.1483C351.449 12.6354 364.189 26.5256 379.765 42.0125L408.08 70.1703H496.534C545.188 70.1703 584.387 69.5768 583.648 68.8478C582.905 68.122 532.902 55.0189 472.525 39.7287C412.149 24.4385 360.205 11.1451 357.099 10.187C353.993 9.22896 351.449 9.66123 351.449 11.1483ZM294.95 41.9448L256.709 68.5575L293.387 69.4768C313.563 69.98 331.973 69.6639 334.301 68.7703C339.064 66.9445 340.575 15.3321 335.864 15.3321C334.395 15.3321 315.985 27.3094 294.95 41.9448ZM344.991 40.4222V66.9446H369.698H394.404L375.6 46.7835C365.258 35.6965 354.142 23.7611 350.893 20.2611C345.14 14.058 344.991 14.5612 344.991 40.4222ZM251.375 84.7057L258.975 92.7863L266.469 85.7541C270.589 81.8863 273.96 78.2509 273.96 77.6735C273.96 77.0961 267.17 76.6219 258.869 76.6219H243.775L251.375 84.7057ZM303.9 85.4186L312.704 94.2185L321.509 85.4186L330.317 76.6219H312.704H295.092L303.9 85.4186ZM413.553 85.296C422.041 93.7766 422.384 93.8379 428.815 88.0218C438.747 79.0444 436.9 76.6219 420.133 76.6219H404.868L413.553 85.296ZM468.564 85.4186L477.368 94.2185L486.173 85.4186L494.981 76.6219H477.368H459.756L468.564 85.4186ZM523.452 85.4186L532.257 94.2185L541.061 85.4186L549.869 76.6219H532.257H514.644L523.452 85.4186ZM574.23 79.3477C574.23 80.8477 577.19 84.7508 580.81 88.0218C587.241 93.8379 587.584 93.7766 596.072 85.296L604.757 76.6219H589.492C581.097 76.6219 574.23 77.8477 574.23 79.3477ZM629.118 79.4767C629.118 81.0476 632.573 84.5928 636.799 87.3605C644.005 92.0798 644.932 91.9024 651.89 84.5057L659.303 76.6219H644.209C635.908 76.6219 629.118 77.9057 629.118 79.4767ZM271.296 90.5379L264.28 97.9991L273.963 107.27L283.646 116.538V99.8055C283.646 81.1799 281.563 79.6186 271.296 90.5379ZM290.103 96.8572C290.103 113.609 292.528 115.454 301.514 105.531C307.335 99.1056 307.274 98.7636 298.785 90.2831L290.103 81.6057V96.8572ZM326.165 90.5573L319.126 98.0443L327.214 105.638L335.305 113.231V98.1507C335.305 89.8572 334.831 83.0735 334.253 83.0735C333.675 83.0735 330.036 86.4412 326.165 90.5573ZM350.374 85.2251C347.681 87.9121 347.542 113.038 350.18 119.905C351.685 123.821 356.938 125.009 372.781 125.009H393.422V104.041V83.0735H372.975C361.726 83.0735 351.555 84.0412 350.374 85.2251ZM435.563 90.9218L427.663 99.3604L434.669 106.36C443.557 115.244 445.74 112.944 444.478 96.0153L443.467 82.4831L435.563 90.9218ZM453.14 95.983C453.218 103.086 453.977 109.228 454.829 109.634C455.685 110.041 459.933 107.889 464.27 104.854L472.161 99.3346L464.515 91.2024C460.311 86.7315 456.001 83.0735 454.935 83.0735C453.873 83.0735 453.066 88.8831 453.14 95.983ZM490.451 90.9218L482.551 99.3604L489.557 106.36C498.445 115.244 500.628 112.944 499.366 96.0153L498.355 82.4831L490.451 90.9218ZM507.318 97.5894C506.792 113.718 508.648 114.957 519.791 105.928L527.413 99.7507L519.587 91.4121C515.28 86.8251 510.866 83.0735 509.775 83.0735C508.687 83.0735 507.58 89.6057 507.318 97.5894ZM545.733 90.5379C536.958 99.8733 536.987 100.557 546.473 106.764C554.225 111.841 554.228 111.838 555.374 97.4572C556.004 89.5476 555.671 83.0735 554.638 83.0735C553.602 83.0735 549.595 86.4347 545.733 90.5379ZM564.544 96.8572C564.544 113.609 566.968 115.454 575.954 105.531C581.775 99.1056 581.714 98.7636 573.226 90.2831L564.544 81.6057V96.8572ZM600.605 90.5573L593.567 98.0443L601.312 105.315L609.058 112.583L610.233 97.8282C610.879 89.7121 610.559 83.0735 609.526 83.0735C608.49 83.0735 604.476 86.4412 600.605 90.5573ZM619.432 97.4572C619.432 110.88 620.01 112.025 625.347 109.17C637.655 102.589 638.465 97.9862 628.705 90.0863L619.432 82.5832V97.4572ZM655.706 90.983L648.396 97.9056L658.128 107.222L667.862 116.538L667.539 107.064C667.362 101.854 666.274 94.5443 665.118 90.825L663.019 84.0605L655.706 90.983ZM673.813 97.5894C675.101 113.757 677.071 115.093 685.649 105.622C691.354 99.3249 691.306 98.9024 683.974 91.1057C679.821 86.6863 675.576 83.0735 674.539 83.0735C673.506 83.0735 673.18 89.6057 673.813 97.5894ZM235.386 98.3959C230.476 116.063 230.882 116.502 243.378 106.98C254.187 98.741 254.491 97.9927 249.334 92.2992C241.553 83.7089 239.18 84.7476 235.386 98.3959ZM406.337 97.983C406.337 105.17 407.073 105.835 411.219 102.396C414.935 99.3153 415.226 97.2895 412.439 93.9347C407.283 87.7283 406.337 88.354 406.337 97.983ZM216.272 104.044C204.162 117.828 204.032 118.557 213.686 118.557C219.556 118.557 222.026 115.925 224.883 106.625C226.898 100.06 228.064 94.2056 227.47 93.6121C226.876 93.0185 221.836 97.7153 216.272 104.044ZM249.118 110.389L240.058 118.354L257.571 118.454L275.087 118.557L267.502 110.493C263.331 106.057 259.527 102.428 259.046 102.428C258.569 102.428 254.1 106.012 249.118 110.389ZM306.596 109.202C296.79 117.193 298.937 119.215 315.894 117.954L329.439 116.944L321.88 109.928C314.357 102.951 314.28 102.947 306.596 109.202ZM414.786 108.46C407.05 117.002 408.235 118.557 422.48 118.557C437.207 118.557 438.437 116.073 427.601 108.209C420.421 102.996 419.726 103.009 414.786 108.46ZM469.797 108.328C461.774 117.186 463.065 118.557 479.454 118.557H494.455L485.747 110.493C475.354 100.87 476.419 101.015 469.797 108.328ZM522.454 110.618L514.986 118.557H532.089C547.193 118.557 548.704 117.97 545.026 113.541C536.312 103.054 530.3 102.273 522.454 110.618ZM635.924 109.202C626.118 117.193 628.265 119.215 645.223 117.954L658.767 116.944L651.209 109.928C643.686 102.951 643.608 102.947 635.924 109.202ZM579.073 112.105C573.306 118.473 573.432 118.557 588.759 118.557C604.086 118.557 604.212 118.473 598.445 112.105C595.232 108.557 590.874 105.654 588.759 105.654C586.644 105.654 582.285 108.557 579.073 112.105ZM688.849 112.105C683.079 118.473 683.208 118.557 698.842 118.486L714.679 118.415L706.607 112.105C696.53 104.231 695.981 104.231 688.849 112.105ZM764.724 194.363V270.169H717.1L669.477 270.165L669.997 341.387C670.284 380.558 671.01 412.945 671.611 413.358C672.215 413.774 685.782 424.264 701.764 436.67C717.746 449.077 732.488 460.231 734.525 461.457C736.569 462.686 745.193 457.931 753.768 450.854C762.318 443.796 778.455 434.041 789.63 429.177C800.808 424.312 810.775 417.741 811.782 414.57C816.083 401.025 849.571 394.503 884.993 400.306L900.329 402.822V260.688V118.557H832.526H764.724V194.363ZM609.387 126.454C609.19 127.431 609.029 131.138 609.029 134.686C609.029 138.234 609.19 150.537 609.387 162.024L609.746 182.911L617.817 179.847C622.964 177.892 628.892 177.921 634.171 179.927C638.726 181.656 643.021 183.073 643.715 183.073C644.409 183.073 644.661 170.373 644.28 154.847L643.579 126.621L626.664 125.647C617.359 125.109 609.584 125.473 609.387 126.454ZM789.691 146.783C789.01 148.112 788.174 153.921 787.835 159.686C787.253 169.64 787.793 170.169 798.573 170.169C809.664 170.169 809.925 169.873 809.925 157.266C809.925 145.137 809.354 144.363 800.43 144.363C795.206 144.363 790.376 145.454 789.691 146.783ZM822.84 157.266C822.84 169.453 823.38 170.169 832.526 170.169C841.673 170.169 842.213 169.453 842.213 157.266C842.213 145.079 841.673 144.363 832.526 144.363C823.38 144.363 822.84 145.079 822.84 157.266ZM853.858 149.466C852.78 152.273 851.899 158.079 851.899 162.37C851.899 169.134 853.4 170.169 863.199 170.169C874.232 170.169 874.5 169.863 874.5 157.266C874.5 145.186 873.906 144.363 865.159 144.363C859.619 144.363 855.021 146.441 853.858 149.466ZM350.509 159.279C344.749 165.034 349.88 166.944 371.089 166.944C387.943 166.944 393.609 165.882 392.628 162.911C391.178 158.521 354.439 155.353 350.509 159.279ZM351.449 176.237C351.449 177.802 356.327 182.798 362.294 187.347L373.139 195.608L383.913 184.502L394.688 173.395H373.068C361.177 173.395 351.449 174.676 351.449 176.237ZM789.41 182.973C787.728 187.389 789.362 205.637 791.438 205.643C810.716 205.718 809.925 206.272 809.925 192.698C809.925 180.221 809.561 179.773 799.994 180.502C794.531 180.918 789.769 182.027 789.41 182.973ZM822.84 193.127C822.84 204.895 823.428 205.653 832.526 205.653C841.573 205.653 842.213 204.85 842.213 193.521C842.213 182.282 841.502 181.363 832.526 180.995C823.36 180.621 822.84 181.273 822.84 193.127ZM854.688 181.36C853.855 182.195 853.771 188.002 854.504 194.263C855.683 204.366 856.89 205.653 865.165 205.653C873.902 205.653 874.5 204.827 874.5 192.75C874.5 180.734 873.873 179.847 865.353 179.847C860.319 179.847 855.521 180.527 854.688 181.36ZM344.991 201.682C344.991 212.737 346.17 221.782 347.613 221.782C349.056 221.782 353.58 217.259 357.671 211.734L365.109 201.682L355.049 191.634L344.991 181.582V201.682ZM385.282 192.821L375.932 202.572L386.293 212.921L396.651 223.272V203.172C396.651 192.118 396.196 183.073 395.64 183.073C395.085 183.073 390.423 187.46 385.282 192.821ZM624.543 195.543C623.151 197.792 622.886 200.501 623.952 201.566C626.842 204.453 629.993 200.208 628.43 195.53C627.339 192.253 626.577 192.253 624.543 195.543ZM360.124 217.927C355.352 222.901 351.449 227.982 351.449 229.217C351.449 230.45 361.177 231.459 373.068 231.459H394.688L383.736 220.169C377.711 213.959 371.887 208.879 370.792 208.879C369.697 208.879 364.896 212.95 360.124 217.927ZM789.229 218.556C788.829 219.443 788.732 225.25 789.013 231.459C789.472 241.637 790.527 242.849 799.723 243.759C809.819 244.759 809.925 244.62 809.925 230.182C809.925 215.875 809.728 215.605 799.942 216.266C794.45 216.64 789.633 217.669 789.229 218.556ZM822.517 221.782C820.59 241.027 821.362 242.749 831.881 242.749C841.667 242.749 842.213 242.111 842.213 230.653C842.213 219.363 841.567 218.556 832.526 218.556C827.199 218.556 822.695 220.008 822.517 221.782ZM853.616 229.853C853.674 236.066 854.763 241.146 856.038 241.143C857.313 241.14 861.988 241.137 866.428 241.137C873.499 241.137 874.5 239.74 874.5 229.846C874.5 219.259 873.847 218.556 864.006 218.556C854.146 218.556 853.52 219.237 853.616 229.853ZM464.454 283.072V334.684H440.238H416.023V399.2C416.023 434.683 417.311 463.715 418.887 463.715C420.462 463.715 433.904 457.289 448.752 449.431C480.555 432.609 533.761 411.093 564.037 402.809L585.53 396.929L586.392 314.194L587.254 231.459H525.854H464.454V283.072ZM360.389 248.333L370.821 258.756L381.253 248.333L391.685 237.911H370.821H349.957L360.389 248.333ZM344.991 265.723C344.991 285.368 344.352 285.188 362.01 270.559C367.412 266.081 367.244 265.32 358.985 256.704C354.174 251.691 349.06 247.588 347.616 247.588C346.173 247.588 344.991 255.749 344.991 265.723ZM385.282 257.336L375.932 267.088L386.293 277.436L396.651 287.788V267.688C396.651 256.633 396.196 247.588 395.64 247.588C395.085 247.588 390.423 251.975 385.282 257.336ZM506.427 265.491V280.168L524.992 279.201C543.157 278.252 543.563 278.027 543.922 268.556C544.526 252.543 542.569 250.814 523.839 250.814H506.427V265.491ZM788.664 266.136C788.919 277.359 789.698 278.307 799.432 279.243C809.716 280.233 809.925 279.991 809.925 267.146C809.925 254.443 809.596 254.04 799.158 254.04C788.823 254.04 788.403 254.52 788.664 266.136ZM822.84 266.943C822.84 279.13 823.38 279.846 832.526 279.846C841.673 279.846 842.213 279.13 842.213 266.943C842.213 254.756 841.673 254.04 832.526 254.04C823.38 254.04 822.84 254.756 822.84 266.943ZM854.265 264.523C852.209 278.01 853.497 279.846 865.004 279.846C873.928 279.846 874.5 279.072 874.5 266.943C874.5 254.869 873.899 254.04 865.178 254.04C857.145 254.04 855.641 255.485 854.265 264.523ZM361.135 281.459L350.183 292.749H371.88H393.58L383.297 281.459C377.64 275.249 372.804 270.169 372.548 270.169C372.297 270.169 367.16 275.249 361.135 281.459ZM789.116 298.394C789.555 303.271 790.056 309.081 790.234 311.297C790.411 313.555 794.815 315.329 800.239 315.329C809.386 315.329 809.925 314.613 809.925 302.426C809.925 289.943 809.574 289.523 799.122 289.523C789.3 289.523 788.393 290.326 789.116 298.394ZM822.401 291.036C821.568 291.872 821.484 297.678 822.217 303.939C823.396 314.042 824.603 315.329 832.878 315.329C841.615 315.329 842.213 314.504 842.213 302.426C842.213 290.41 841.586 289.523 833.066 289.523C828.032 289.523 823.234 290.204 822.401 291.036ZM855.127 302.426C855.127 314.613 855.667 315.329 864.814 315.329C873.96 315.329 874.5 314.613 874.5 302.426C874.5 290.239 873.96 289.523 864.814 289.523C855.667 289.523 855.127 290.239 855.127 302.426ZM691.79 297.172C688.2 306.517 691.858 313.716 700.195 313.716C706.962 313.716 708.221 312.197 708.221 304.039C708.221 296.452 706.649 294.139 700.944 293.33C696.672 292.723 692.888 294.313 691.79 297.172ZM725.979 304.039C725.979 313.933 726.98 315.329 734.051 315.329C741.122 315.329 742.123 313.933 742.123 304.039C742.123 294.146 741.122 292.749 734.051 292.749C726.98 292.749 725.979 294.146 725.979 304.039ZM508.58 298.126C507.395 299.307 506.427 305.839 506.427 312.642V325.007H524.185H541.943V310.491V295.975H526.338C517.753 295.975 509.762 296.942 508.58 298.126ZM351.449 301.784C351.449 303.249 355.843 308.649 361.212 313.791L370.973 323.133L382.528 311.591L394.081 300.046L372.765 299.584C361.041 299.329 351.449 300.32 351.449 301.784ZM344.991 329.845C344.991 339.603 345.569 347.587 346.273 347.587C346.98 347.587 352.043 343.652 357.528 338.845L367.499 330.103L358.872 321.104C354.125 316.152 349.06 312.104 347.616 312.104C346.173 312.104 344.991 320.087 344.991 329.845ZM385.525 320.284L376.013 328.458L386.332 338.768L396.651 349.077V330.591C396.651 320.423 396.286 312.107 395.844 312.107C395.401 312.11 390.755 315.791 385.525 320.284ZM691.506 333.4C688.181 342.052 692.113 349.2 700.195 349.2C706.91 349.2 708.221 347.665 708.221 339.79C708.221 332.229 706.733 330.271 700.656 329.823C696.498 329.516 692.378 331.126 691.506 333.4ZM725.979 338.555C725.979 346.039 727.364 347.587 734.051 347.587C740.737 347.587 742.123 346.039 742.123 338.555C742.123 331.071 740.737 329.523 734.051 329.523C727.364 329.523 725.979 331.071 725.979 338.555ZM359.521 347.587L350.241 357.264H370.217C381.205 357.264 390.193 356.468 390.193 355.497C390.193 353.355 373.178 338.155 370.618 338.013C369.617 337.955 364.625 342.265 359.521 347.587ZM507.831 352.4C504.499 370.158 507.25 373.393 525.699 373.393H541.943V357.264V341.136H525.944C510.227 341.136 509.911 341.332 507.831 352.4ZM822.84 357.264C822.84 369.451 823.38 370.168 832.526 370.168C841.673 370.168 842.213 369.451 842.213 357.264C842.213 345.078 841.673 344.361 832.526 344.361C823.38 344.361 822.84 345.078 822.84 357.264ZM438.624 358.877C438.624 366.403 439.699 366.942 454.768 366.942C469.836 366.942 470.911 366.403 470.911 358.877C470.911 351.352 469.836 350.813 454.768 350.813C439.699 350.813 438.624 351.352 438.624 358.877ZM351.449 366.339C351.449 367.78 355.843 373.164 361.212 378.306L370.973 387.648L382.951 375.684L394.93 363.716H373.188C361.232 363.716 351.449 364.897 351.449 366.339ZM691.067 374.2C691.913 382.961 693.401 384.684 700.149 384.684C706.897 384.684 708.386 382.961 709.232 374.2C710.181 364.39 709.593 363.716 700.149 363.716C690.705 363.716 690.118 364.39 691.067 374.2ZM726.583 374.2C727.358 382.235 729.288 384.926 734.858 385.716C741.228 386.619 742.123 385.326 742.123 375.232C742.123 365.022 741.183 363.716 733.847 363.716C726.454 363.716 725.679 364.835 726.583 374.2ZM344.991 391.135C344.991 400.893 346.192 408.877 347.658 408.877C351.336 408.877 364.364 394.687 364.364 390.684C364.364 387.106 350.755 373.393 347.206 373.393C345.986 373.393 344.991 381.377 344.991 391.135ZM385.282 383.142L375.932 392.893L386.293 403.241L396.651 413.593V393.493C396.651 382.438 396.196 373.393 395.64 373.393C395.085 373.393 390.423 377.78 385.282 383.142ZM438.624 392.925C438.624 402.667 438.795 402.767 453.96 401.796C468.005 400.896 469.384 400.064 470.317 391.942C471.315 383.297 470.921 383.071 454.981 383.071C438.895 383.071 438.624 383.232 438.624 392.925ZM580.687 405.354C466.949 438.822 361.923 507.305 246.923 622.985L192.445 677.787L130.689 681.868C49.9617 687.203 50.5913 687.081 89.9235 689.832C158.856 694.658 614.724 696.878 755.037 693.071C951.466 687.742 1169.18 676.829 1173.94 672.075C1174.99 671.023 1162.89 669.974 1147.06 669.745C1131.22 669.513 1090.66 668.423 1056.92 667.326L995.576 665.326L1012.65 657.62C1040.82 644.901 1050.13 625.323 1036.04 608.427L1029.69 600.811L1029.58 608.282C1029.31 627.614 1012.76 638.381 968.765 647.875C951.546 651.591 934.915 655.959 931.809 657.584C927.024 660.091 926.159 659.055 926.159 650.836V641.133H859.97H793.782V651.155C793.782 659.433 792.797 660.775 788.132 658.862C785.026 657.588 770.132 653.797 755.037 650.436C716.154 641.784 693.372 629.733 688.713 615.356C685.194 604.501 684.929 604.349 681.307 611.114C671.808 628.843 679.934 644.484 704.611 655.962L721.136 663.649L708.221 663.662C684.477 663.678 668.185 647.23 667.975 623.023C667.888 612.746 669.864 607.765 676.741 600.93C683.76 593.953 686.327 587.279 688.994 569.04C692.268 546.64 692.068 545.318 682.153 523.392C671.759 500.421 639.217 431.832 636.621 427.425C635.837 426.093 635.876 425.006 636.709 425.006C637.538 425.006 644.348 436.161 651.838 449.796C659.329 463.431 672.692 486.825 681.536 501.786L697.618 528.986L703.562 515.718C706.833 508.418 714.088 495.799 719.686 487.67L729.863 472.892L722.269 464.728C708.835 450.277 650.757 404.919 639.869 400.377C625.153 394.232 615.819 395.019 580.687 405.354ZM360.124 408.248C355.352 413.222 351.449 417.941 351.449 418.732C351.449 419.522 356.172 419.977 361.942 419.741C367.715 419.506 376.704 419.145 381.918 418.935L391.401 418.554L382.122 408.877C377.017 403.554 371.932 399.2 370.821 399.2C369.71 399.2 364.896 403.27 360.124 408.248ZM837.37 408.306C827.926 410.529 827.687 411.064 827.787 429.893C827.842 440.512 828.807 470.973 829.927 497.586C831.051 524.198 831.258 540.892 830.392 534.682C829.524 528.473 826.208 502.653 823.021 477.309C819.834 451.964 816.464 430.461 815.53 429.528C811.795 425.799 769.983 449.667 752.577 465.463C720.171 494.879 699.113 545.076 696.482 599.198L695.306 623.391L707.072 629.139C718.85 634.891 753.3 642.994 774.261 644.936C783.886 645.83 785.671 644.868 787.321 637.907C788.474 633.03 791.406 629.949 794.734 630.11C797.763 630.259 829.269 630.623 864.752 630.917L929.265 631.456L931.309 639.597C933.152 646.93 934.525 647.549 945.092 645.83C970.854 641.639 999.735 634.636 1011.46 629.746L1023.82 624.585L1021.54 595.401C1016.93 536.64 1003.89 505.324 969.995 471.683C949.748 451.586 914.229 428.232 903.913 428.232C901.931 428.232 900.313 433.638 900.291 440.328C900.239 457.16 887.867 554.669 885.493 556.982C884.425 558.024 884.399 549.44 885.435 537.908C890.211 484.789 894.766 411.919 893.394 410.551C890.588 407.745 847.146 406.003 837.37 408.306ZM351.546 428.232C351.597 429.119 356.105 434.751 361.561 440.751L371.483 451.654L383.206 439.944C394.775 428.386 394.823 428.228 386.91 427.896C358.998 426.728 351.462 426.799 351.546 428.232ZM557.925 528.86C529.028 582.627 500.399 635.691 494.31 646.778L483.232 666.939H494.368H505.503L559.239 550.272C588.791 486.105 612.406 433.041 611.718 432.354C611.031 431.667 586.822 475.092 557.925 528.86ZM344.991 453.435C344.991 464.412 345.708 473.392 346.58 473.392C350.028 473.392 364.364 459.109 364.364 455.673C364.364 453.664 360.005 447.848 354.678 442.748L344.991 433.477V453.435ZM385.638 444.609C381.04 450.067 377.279 455.599 377.279 456.906C377.279 458.209 381.637 462.496 386.965 466.431L396.651 473.586V454.135C396.651 443.435 396.053 434.683 395.324 434.683C394.594 434.683 390.235 439.151 385.638 444.609ZM622.66 465.328C622.66 469.763 624.113 473.392 625.889 473.392C627.665 473.392 629.118 469.763 629.118 465.328C629.118 460.893 627.665 457.264 625.889 457.264C624.113 457.264 622.66 460.893 622.66 465.328ZM361.141 471.773L350.183 483.07H370.75H391.32L383.539 474.199C379.261 469.322 374.938 464.238 373.93 462.902C372.923 461.567 367.169 465.56 361.141 471.773ZM619.432 500.812C619.432 511.299 620.723 515.328 624.084 515.328C631.049 515.328 632.899 510.253 630.529 497.641C627.323 480.57 619.432 482.825 619.432 500.812ZM618.331 530.65C617.514 531.982 615.809 541.414 614.54 551.618L612.232 570.166H623.903C635.007 570.166 635.575 569.637 635.575 559.279C635.575 539.514 631.978 528.231 625.676 528.231C622.451 528.231 619.144 529.318 618.331 530.65ZM611.741 595.356C610.853 596.791 609.106 612.759 607.86 630.839L605.593 663.713H623.813H642.033V648.059C642.033 639.446 641.099 623.478 639.96 612.575L637.884 592.746H625.621C618.873 592.746 612.629 593.92 611.741 595.356Z" fill="url(#paint0_linear_26_80)"/>
<defs>
<linearGradient id="paint0_linear_26_80" x1="279" y1="-24.5" x2="676.5" y2="442.5" gradientUnits="userSpaceOnUse">
<stop stop-color="#E40001"/>
<stop offset="1"/>
</linearGradient>
</defs>
</svg>
