<svg width="541" height="188" viewBox="0 0 541 188" fill="none" xmlns="http://www.w3.org/2000/svg">
<path fill-rule="evenodd" clip-rule="evenodd" d="M93.012 93.6337L0 187.267L35.0393 187.634L70.08 187.999L128.667 129.327L187.254 70.654L245.399 129.327L303.542 188L338.771 187.634L374 187.267L281.139 93.6337C230.066 42.1345 187.771 0 187.151 0C186.531 0 144.169 42.1345 93.012 93.6337ZM68.9238 61.2796C68.9238 77.6275 69.3871 90.5249 69.9549 89.9405C70.5226 89.3547 81.6566 78.6647 94.7001 66.1857C118.286 43.6175 118.414 43.4639 118.414 37.5248V31.5542H93.6691H68.9238V61.2796Z" fill="#E40001"/>
<path fill-rule="evenodd" clip-rule="evenodd" d="M318.082 36.5464C298.432 56.6095 282.356 73.5193 282.356 74.1242C282.356 74.729 290.078 83.0214 299.517 92.551L316.679 109.878L335.731 90.5074L354.784 71.1356L412.695 129.568L470.606 188L505.804 187.575L541 187.148L447.865 93.5399C396.64 42.0546 354.523 -0.0383772 354.269 2.62572e-05C354.016 0.0370582 337.732 16.4834 318.082 36.5464ZM158 134.344V142.573H166.245H174.489V134.344V126.114H166.245H158V134.344ZM184.108 134.344V142.573H192.352H200.597V134.344V126.114H192.352H184.108V134.344ZM158 160.403V168.632H166.245H174.489V160.403V152.174H166.245H158V160.403ZM184.108 160.403V168.632H192.352H200.597V160.403V152.174H192.352H184.108V160.403Z" fill="black"/>
</svg>
