<svg width="1514" height="190" viewBox="0 0 1514 190" fill="none" xmlns="http://www.w3.org/2000/svg">
<path d="M837.693 164.367C837.56 162.988 836.99 161.916 835.981 161.152C834.973 160.388 833.605 160.006 831.877 160.006C830.702 160.006 829.711 160.177 828.902 160.519C828.093 160.85 827.473 161.312 827.041 161.904C826.62 162.497 826.409 163.17 826.409 163.922C826.387 164.55 826.515 165.097 826.792 165.564C827.08 166.032 827.473 166.436 827.972 166.778C828.47 167.109 829.046 167.4 829.7 167.651C830.353 167.89 831.051 168.095 831.794 168.266L834.851 169.019C836.336 169.361 837.699 169.817 838.939 170.387C840.18 170.957 841.255 171.658 842.163 172.491C843.072 173.323 843.775 174.303 844.274 175.432C844.783 176.561 845.044 177.855 845.055 179.314C845.044 181.458 844.512 183.316 843.459 184.89C842.418 186.452 840.911 187.666 838.939 188.532C836.978 189.388 834.613 189.815 831.844 189.815C829.096 189.815 826.703 189.382 824.665 188.515C822.637 187.649 821.053 186.366 819.912 184.667C818.782 182.957 818.189 180.842 818.134 178.322H825.097C825.174 179.497 825.501 180.477 826.077 181.264C826.664 182.039 827.445 182.626 828.42 183.026C829.406 183.413 830.52 183.607 831.76 183.607C832.979 183.607 834.037 183.425 834.934 183.06C835.843 182.695 836.546 182.188 837.045 181.538C837.543 180.888 837.793 180.141 837.793 179.297C837.793 178.511 837.566 177.849 837.111 177.313C836.668 176.778 836.015 176.321 835.15 175.945C834.297 175.569 833.251 175.227 832.01 174.919L828.304 173.961C825.435 173.243 823.169 172.12 821.507 170.592C819.845 169.064 819.02 167.007 819.031 164.418C819.02 162.298 819.568 160.445 820.676 158.86C821.795 157.275 823.33 156.038 825.279 155.149C827.229 154.26 829.445 153.815 831.927 153.815C834.453 153.815 836.657 154.26 838.541 155.149C840.435 156.038 841.908 157.275 842.961 158.86C844.013 160.445 844.556 162.281 844.589 164.367H837.693Z" fill="black"/>
<path d="M888.677 189.319H880.966L892.715 154.294H901.988L913.72 189.319H906.009L897.484 162.298H897.219L888.677 189.319ZM888.195 175.552H906.408V181.332H888.195V175.552Z" fill="black"/>
<path d="M979.976 154.294V189.319H973.761L958.954 167.274H958.705V189.319H951.509V154.294H957.824L972.514 176.321H972.814V154.294H979.976Z" fill="black"/>
<path d="M1018.32 160.399V154.294H1046.27V160.399H1035.85V189.319H1028.74V160.399H1018.32Z" fill="black"/>
<path d="M1114.29 171.807C1114.29 175.626 1113.58 178.875 1112.18 181.555C1110.78 184.234 1108.87 186.281 1106.46 187.694C1104.06 189.097 1101.35 189.798 1098.35 189.798C1095.33 189.798 1092.61 189.091 1090.21 187.677C1087.8 186.264 1085.9 184.217 1084.51 181.538C1083.11 178.858 1082.41 175.615 1082.41 171.807C1082.41 167.987 1083.11 164.738 1084.51 162.058C1085.9 159.379 1087.8 157.338 1090.21 155.936C1092.61 154.522 1095.33 153.815 1098.35 153.815C1101.35 153.815 1104.06 154.522 1106.46 155.936C1108.87 157.338 1110.78 159.379 1112.18 162.058C1113.58 164.738 1114.29 167.987 1114.29 171.807ZM1106.99 171.807C1106.99 169.332 1106.63 167.246 1105.91 165.547C1105.2 163.848 1104.2 162.56 1102.9 161.682C1101.61 160.804 1100.09 160.365 1098.35 160.365C1096.61 160.365 1095.09 160.804 1093.8 161.682C1092.5 162.56 1091.49 163.848 1090.77 165.547C1090.06 167.246 1089.71 169.332 1089.71 171.807C1089.71 174.281 1090.06 176.367 1090.77 178.066C1091.49 179.765 1092.5 181.053 1093.8 181.931C1095.09 182.809 1096.61 183.248 1098.35 183.248C1100.09 183.248 1101.61 182.809 1102.9 181.931C1104.2 181.053 1105.2 179.765 1105.91 178.066C1106.63 176.367 1106.99 174.281 1106.99 171.807Z" fill="black"/>
<path d="M1171.77 164.367C1171.64 162.988 1171.07 161.916 1170.06 161.152C1169.05 160.388 1167.68 160.006 1165.96 160.006C1164.78 160.006 1163.79 160.177 1162.98 160.519C1162.17 160.85 1161.55 161.312 1161.12 161.904C1160.7 162.497 1160.49 163.17 1160.49 163.922C1160.47 164.55 1160.59 165.097 1160.87 165.564C1161.16 166.032 1161.55 166.436 1162.05 166.778C1162.55 167.109 1163.13 167.4 1163.78 167.651C1164.43 167.89 1165.13 168.095 1165.87 168.266L1168.93 169.019C1170.41 169.361 1171.78 169.817 1173.02 170.387C1174.26 170.957 1175.33 171.658 1176.24 172.491C1177.15 173.323 1177.85 174.303 1178.35 175.432C1178.86 176.561 1179.12 177.855 1179.13 179.314C1179.12 181.458 1178.59 183.316 1177.54 184.89C1176.5 186.452 1174.99 187.666 1173.02 188.532C1171.06 189.388 1168.69 189.815 1165.92 189.815C1163.18 189.815 1160.78 189.382 1158.74 188.515C1156.72 187.649 1155.13 186.366 1153.99 184.667C1152.86 182.957 1152.27 180.842 1152.21 178.322H1159.18C1159.25 179.497 1159.58 180.477 1160.16 181.264C1160.74 182.039 1161.52 182.626 1162.5 183.026C1163.49 183.413 1164.6 183.607 1165.84 183.607C1167.06 183.607 1168.12 183.425 1169.01 183.06C1169.92 182.695 1170.63 182.188 1171.12 181.538C1171.62 180.888 1171.87 180.141 1171.87 179.297C1171.87 178.511 1171.64 177.849 1171.19 177.313C1170.75 176.778 1170.09 176.321 1169.23 175.945C1168.38 175.569 1167.33 175.227 1166.09 174.919L1162.38 173.961C1159.51 173.243 1157.25 172.12 1155.59 170.592C1153.92 169.064 1153.1 167.007 1153.11 164.418C1153.1 162.298 1153.65 160.445 1154.76 158.86C1155.87 157.275 1157.41 156.038 1159.36 155.149C1161.31 154.26 1163.52 153.815 1166.01 153.815C1168.53 153.815 1170.74 154.26 1172.62 155.149C1174.51 156.038 1175.99 157.275 1177.04 158.86C1178.09 160.445 1178.64 162.281 1178.67 164.367H1171.77Z" fill="black"/>
<path d="M573.472 37.8544H551.826C551.43 35.0796 550.623 32.615 549.404 30.4604C548.185 28.2733 546.62 26.4125 544.709 24.8783C542.798 23.344 540.591 22.1688 538.087 21.3527C535.615 20.5366 532.93 20.1285 530.031 20.1285C524.792 20.1285 520.229 21.418 516.341 23.9969C512.453 26.5431 509.439 30.2646 507.297 35.1612C505.155 40.0252 504.085 45.9339 504.085 52.8871C504.085 60.0362 505.155 66.0428 507.297 70.9068C509.472 75.7708 512.503 79.4433 516.391 81.9242C520.278 84.4052 524.776 85.6457 529.883 85.6457C532.749 85.6457 535.401 85.2703 537.839 84.5195C540.31 83.7686 542.502 82.6751 544.412 81.2387C546.323 79.7697 547.905 77.9906 549.157 75.9014C550.442 73.8121 551.331 71.4291 551.826 68.7522L573.472 68.8502C572.912 73.453 571.512 77.8927 569.271 82.1691C567.064 86.4128 564.082 90.2159 560.326 93.5783C556.603 96.908 552.155 99.5522 546.982 101.511C541.843 103.437 536.027 104.4 529.537 104.4C520.509 104.4 512.437 102.376 505.32 98.328C498.236 94.2801 492.635 88.4205 488.517 80.749C484.431 73.0776 482.389 63.7903 482.389 52.8871C482.389 41.9512 484.464 32.6476 488.616 24.9762C492.767 17.3048 498.401 11.4614 505.518 7.44618C512.635 3.39828 520.641 1.37433 529.537 1.37433C535.401 1.37433 540.838 2.19044 545.846 3.82265C550.887 5.45487 555.351 7.83791 559.239 10.9718C563.127 14.073 566.29 17.876 568.728 22.381C571.199 26.8859 572.78 32.0437 573.472 37.8544Z" fill="#E40001"/>
<path d="M681.829 52.8871C681.829 63.823 679.736 73.1266 675.552 80.798C671.401 88.4694 665.734 94.3291 658.551 98.377C651.401 102.392 643.362 104.4 634.433 104.4C625.439 104.4 617.367 102.376 610.217 98.328C603.067 94.2801 597.417 88.4205 593.265 80.749C589.114 73.0776 587.038 63.7903 587.038 52.8871C587.038 41.9512 589.114 32.6476 593.265 24.9762C597.417 17.3048 603.067 11.4614 610.217 7.44618C617.367 3.39828 625.439 1.37433 634.433 1.37433C643.362 1.37433 651.401 3.39828 658.551 7.44618C665.734 11.4614 671.401 17.3048 675.552 24.9762C679.736 32.6476 681.829 41.9512 681.829 52.8871ZM660.133 52.8871C660.133 45.8033 659.062 39.8294 656.92 34.9654C654.811 30.1014 651.83 26.4125 647.975 23.8989C644.12 21.3853 639.606 20.1285 634.433 20.1285C629.261 20.1285 624.747 21.3853 620.892 23.8989C617.037 26.4125 614.039 30.1014 611.897 34.9654C609.789 39.8294 608.734 45.8033 608.734 52.8871C608.734 59.9709 609.789 65.9448 611.897 70.8088C614.039 75.6728 617.037 79.3617 620.892 81.8753C624.747 84.3889 629.261 85.6457 634.433 85.6457C639.606 85.6457 644.12 84.3889 647.975 81.8753C651.83 79.3617 654.811 75.6728 656.92 70.8088C659.062 65.9448 660.133 59.9709 660.133 52.8871Z" fill="#E40001"/>
<path d="M782.339 2.74539V103.029H763.856L719.821 39.911H719.08V103.029H697.68V2.74539H716.461L760.149 65.8143H761.039V2.74539H782.339Z" fill="#E40001"/>
<path d="M854.927 31.5867C854.531 27.6367 852.835 24.5681 849.836 22.381C846.838 20.1938 842.769 19.1002 837.629 19.1002C834.137 19.1002 831.188 19.5899 828.783 20.5692C826.378 21.5159 824.533 22.838 823.248 24.5355C821.996 26.233 821.37 28.159 821.37 30.3135C821.304 32.109 821.683 33.6759 822.506 35.0143C823.363 36.3527 824.533 37.5116 826.015 38.4909C827.498 39.4376 829.211 40.2701 831.155 40.9882C833.099 41.6738 835.175 42.2614 837.382 42.751L846.476 44.9056C850.891 45.8849 854.943 47.1907 858.633 48.8229C862.323 50.4551 865.519 52.4627 868.221 54.8458C870.923 57.2288 873.015 60.0362 874.498 63.268C876.013 66.4998 876.787 70.2049 876.82 74.3834C876.787 80.5205 875.206 85.8416 872.076 90.3465C868.979 94.8188 864.498 98.2954 858.633 100.776C852.802 103.225 845.767 104.449 837.53 104.449C829.359 104.449 822.243 103.208 816.18 100.727C810.151 98.2464 805.44 94.5739 802.046 89.7099C798.685 84.8133 796.923 78.7577 796.758 71.5433H817.465C817.696 74.9057 818.668 77.7131 820.381 79.9656C822.127 82.1854 824.45 83.8666 827.35 85.0091C830.282 86.119 833.593 86.674 837.283 86.674C840.908 86.674 844.054 86.1517 846.723 85.1071C849.425 84.0625 851.517 82.6098 852.999 80.749C854.482 78.8883 855.223 76.7501 855.223 74.3344C855.223 72.082 854.548 70.1886 853.197 68.6543C851.879 67.12 849.935 65.8143 847.365 64.737C844.828 63.6597 841.715 62.6804 838.025 61.799L827.004 59.0569C818.47 57.0003 811.733 53.7848 806.79 49.4105C801.848 45.0361 799.394 39.1438 799.427 31.7336C799.394 25.6617 801.025 20.357 804.319 15.8195C807.647 11.2819 812.21 7.73998 818.009 5.19372C823.808 2.64746 830.397 1.37433 837.778 1.37433C845.29 1.37433 851.846 2.64746 857.447 5.19372C863.081 7.73998 867.463 11.2819 870.593 15.8195C873.723 20.357 875.338 25.6128 875.437 31.5867H854.927Z" fill="#E40001"/>
<path d="M876.82 12.4262V1.40296H951.664V12.4262H920.284V104.019H908.2V12.4262H876.82Z" fill="black"/>
<path d="M970.313 104.019V1.40296H1004.03C1011.83 1.40296 1018.23 2.77251 1023.23 5.51162C1028.23 8.21733 1031.94 11.9419 1034.34 16.6852C1036.74 21.4285 1037.95 26.8232 1037.95 32.8693C1037.95 38.9154 1036.74 44.2767 1034.34 48.9532C1031.94 53.6298 1028.25 57.3042 1023.28 59.9765C1018.31 62.6154 1011.96 63.9348 1004.23 63.9348H976.94V52.7112H1003.84C1009.16 52.7112 1013.45 51.9095 1016.7 50.3061C1019.98 48.7027 1022.35 46.4313 1023.81 43.4917C1025.31 40.5188 1026.06 36.978 1026.06 32.8693C1026.06 28.7607 1025.31 25.1697 1023.81 22.0966C1022.32 19.0235 1019.93 16.6518 1016.65 14.9816C1013.37 13.278 1009.03 12.4262 1003.64 12.4262H982.397V104.019H970.313ZM1017.29 57.9221L1041.84 104.019H1027.81L1003.64 57.9221H1017.29Z" fill="black"/>
<path d="M1123.57 1.40296H1135.65V69.3462C1135.65 76.361 1134.05 82.6242 1130.83 88.1359C1127.65 93.6141 1123.15 97.9399 1117.33 101.113C1111.52 104.253 1104.7 105.823 1096.87 105.823C1089.04 105.823 1082.22 104.253 1076.4 101.113C1070.59 97.9399 1066.07 93.6141 1062.86 88.1359C1059.67 82.6242 1058.08 76.361 1058.08 69.3462V1.40296H1070.17V68.3441C1070.17 73.3547 1071.24 77.8141 1073.38 81.7223C1075.53 85.5972 1078.58 88.6536 1082.54 90.8917C1086.54 93.0963 1091.31 94.1987 1096.87 94.1987C1102.42 94.1987 1107.2 93.0963 1111.19 90.8917C1115.19 88.6536 1118.24 85.5972 1120.35 81.7223C1122.5 77.8141 1123.57 73.3547 1123.57 68.3441V1.40296Z" fill="black"/>
<path d="M1154.33 12.4262V1.40296H1229.17V12.4262H1197.79V104.019H1185.71V12.4262H1154.33Z" fill="black"/>
<path d="M1327.87 52.7112C1327.87 63.534 1325.96 72.887 1322.16 80.7703C1318.36 88.6536 1313.15 94.7331 1306.52 99.0088C1299.9 103.284 1292.33 105.422 1283.82 105.422C1275.31 105.422 1267.74 103.284 1261.11 99.0088C1254.48 94.7331 1249.27 88.6536 1245.47 80.7703C1241.67 72.887 1239.77 63.534 1239.77 52.7112C1239.77 41.8883 1241.67 32.5353 1245.47 24.652C1249.27 16.7687 1254.48 10.6892 1261.11 6.41353C1267.74 2.13784 1275.31 0 1283.82 0C1292.33 0 1299.9 2.13784 1306.52 6.41353C1313.15 10.6892 1318.36 16.7687 1322.16 24.652C1325.96 32.5353 1327.87 41.8883 1327.87 52.7112ZM1316.17 52.7112C1316.17 43.8258 1314.73 36.3266 1311.83 30.2137C1308.98 24.1008 1305.09 19.4744 1300.19 16.3344C1295.32 13.1945 1289.86 11.6245 1283.82 11.6245C1277.77 11.6245 1272.3 13.1945 1267.4 16.3344C1262.52 19.4744 1258.64 24.1008 1255.75 30.2137C1252.89 36.3266 1251.46 43.8258 1251.46 52.7112C1251.46 61.5966 1252.89 69.0957 1255.75 75.2086C1258.64 81.3215 1262.52 85.9479 1267.4 89.0879C1272.3 92.2278 1277.77 93.7978 1283.82 93.7978C1289.86 93.7978 1295.32 92.2278 1300.19 89.0879C1305.09 85.9479 1308.98 81.3215 1311.83 75.2086C1314.73 69.0957 1316.17 61.5966 1316.17 52.7112Z" fill="black"/>
<path d="M1348.18 104.019V1.40296H1381.9C1389.7 1.40296 1396.1 2.77251 1401.1 5.51162C1406.1 8.21733 1409.81 11.9419 1412.21 16.6852C1414.61 21.4285 1415.82 26.8232 1415.82 32.8693C1415.82 38.9154 1414.61 44.2767 1412.21 48.9532C1409.81 53.6298 1406.12 57.3042 1401.15 59.9765C1396.18 62.6154 1389.83 63.9348 1382.1 63.9348H1354.81V52.7112H1381.71C1387.03 52.7112 1391.32 51.9095 1394.57 50.3061C1397.85 48.7027 1400.22 46.4313 1401.69 43.4917C1403.18 40.5188 1403.93 36.978 1403.93 32.8693C1403.93 28.7607 1403.18 25.1697 1401.69 22.0966C1400.19 19.0235 1397.8 16.6518 1394.52 14.9816C1391.24 13.278 1386.9 12.4262 1381.51 12.4262H1360.27V104.019H1348.18ZM1395.16 57.9221L1419.71 104.019H1405.68L1381.51 57.9221H1395.16Z" fill="black"/>
<path d="M1440.04 104.019H1427.38L1464.02 1.40296H1476.49L1513.13 104.019H1500.46L1470.64 17.6372H1469.86L1440.04 104.019ZM1444.72 63.9348H1495.79V74.9581H1444.72V63.9348Z" fill="black"/>
<path fill-rule="evenodd" clip-rule="evenodd" d="M92.9842 95.1721L0 188.97L35.0288 189.337L70.059 189.702L128.629 130.928L187.198 72.1522L245.326 130.928L303.451 189.704L338.67 189.337L373.888 188.97L281.055 95.1721C229.998 43.5827 187.715 1.37433 187.095 1.37433C186.476 1.37433 144.126 43.5827 92.9842 95.1721ZM68.9032 62.7614C68.9032 79.1378 69.3664 92.0579 69.934 91.4725C70.5016 90.8856 81.6322 80.1769 94.6719 67.676C118.251 45.0683 118.379 44.9144 118.379 38.9649V32.9838H93.6411H68.9032V62.7614Z" fill="#E40001"/>
<path fill-rule="evenodd" clip-rule="evenodd" d="M318.157 37.9947C298.504 58.0984 282.424 75.0424 282.424 75.6485C282.424 76.2546 290.148 84.5637 299.588 94.1126L316.753 111.474L335.809 92.0648L354.865 72.6538L412.786 131.204L470.707 189.755L505.91 189.329L541.112 188.901L447.962 95.1035C396.728 43.514 354.604 1.33587 354.35 1.37435C354.097 1.41146 337.81 17.8911 318.157 37.9947ZM158.048 135.99V144.236H166.294H174.54V135.99V127.744H166.294H158.048V135.99ZM184.16 135.99V144.236H192.406H200.652V135.99V127.744H192.406H184.16V135.99ZM158.048 162.102V170.348H166.294H174.54V162.102V153.856H166.294H158.048V162.102ZM184.16 162.102V170.348H192.406H200.652V162.102V153.856H192.406H184.16V162.102Z" fill="black"/>
</svg>
